<svg id="Layer_1" height="512" viewBox="0 0 68 68" width="512" xmlns="http://www.w3.org/2000/svg" data-name="Layer 1"><path d="m40.92 67h-37a2.92 2.92 0 0 1 -2.92-2.91v-3.45a1 1 0 0 1 1-1h15.81a1 1 0 0 1 .89.55l.66 1.3h6.12l.66-1.3a1 1 0 0 1 .89-.55h15.81a1 1 0 0 1 1 1v3.45a2.92 2.92 0 0 1 -2.92 2.91zm-37.92-5.36v2.45a.91.91 0 0 0 .91.91h37a.92.92 0 0 0 .92-.91v-2.45h-14.18l-.65 1.36a1 1 0 0 1 -.9.54h-7.36a1 1 0 0 1 -.89-.54l-.66-1.31z"/><path d="m40.72 61.64a1 1 0 0 1 -1-1v-21.93a1.36 1.36 0 0 0 -1.36-1.36h-31.88a1.36 1.36 0 0 0 -1.36 1.36v21.93a1 1 0 0 1 -2 0v-21.93a3.36 3.36 0 0 1 3.36-3.36h31.88a3.37 3.37 0 0 1 3.36 3.36v21.93a1 1 0 0 1 -1 1z"/><path d="m28.49 57.09h-12.14a1 1 0 0 1 -1-1v-3a3.58 3.58 0 0 1 3.58-3.58h7a3.58 3.58 0 0 1 3.58 3.58v3a1 1 0 0 1 -1.02 1zm-11.14-2h10.14v-2a1.58 1.58 0 0 0 -1.58-1.58h-7a1.58 1.58 0 0 0 -1.58 1.58z"/><path d="m22.42 48.58a4.34 4.34 0 1 1 4.34-4.34 4.34 4.34 0 0 1 -4.34 4.34zm0-6.68a2.34 2.34 0 1 0 2.34 2.34 2.34 2.34 0 0 0 -2.34-2.34z"/><path d="m64.09 32.65h-37a2.92 2.92 0 0 1 -2.92-2.91v-3.45a1 1 0 0 1 1-1h15.83a1 1 0 0 1 .89.55l.66 1.3h6.12l.66-1.3a1 1 0 0 1 .89-.55h15.78a1 1 0 0 1 1 1v3.45a2.92 2.92 0 0 1 -2.91 2.91zm-37.93-5.36v2.45a.92.92 0 0 0 .92.91h37a.91.91 0 0 0 .91-.91v-2.45h-14.18l-.66 1.31a1 1 0 0 1 -.89.54h-7.35a1 1 0 0 1 -.9-.54l-.66-1.31z"/><path d="m63.88 27.29a1 1 0 0 1 -1-1v-21.93a1.36 1.36 0 0 0 -1.36-1.36h-31.88a1.36 1.36 0 0 0 -1.36 1.36v21.93a1 1 0 0 1 -2 0v-21.93a3.37 3.37 0 0 1 3.36-3.36h31.88a3.36 3.36 0 0 1 3.36 3.36v21.93a1 1 0 0 1 -1 1z"/><path d="m50.07 23.68h-9a2.36 2.36 0 0 1 -2.36-2.36v-7a2.36 2.36 0 0 1 2.36-2.36h9a2.36 2.36 0 0 1 2.36 2.36v7.05a2.36 2.36 0 0 1 -2.36 2.31zm-9-9.77a.36.36 0 0 0 -.36.36v7.05a.36.36 0 0 0 .36.36h9a.36.36 0 0 0 .36-.36v-7a.36.36 0 0 0 -.36-.36z"/><path d="m49.24 13.91h-7.31a1 1 0 0 1 -1-1v-3.65a4.66 4.66 0 0 1 9.31 0v3.65a1 1 0 0 1 -1 1zm-6.31-2h5.31v-2.65a2.66 2.66 0 0 0 -5.31 0z"/><path d="m5.17 27.33a1 1 0 0 1 -1-1v-15.75a1 1 0 0 1 1-1h15.75a1 1 0 0 1 0 2h-14.75v14.75a1 1 0 0 1 -1 1z"/><path d="m62.83 58.42h-15.75a1 1 0 0 1 0-2h14.75v-14.75a1 1 0 0 1 2 0v15.75a1 1 0 0 1 -1 1z"/></svg>