<svg id="a" height="512" viewBox="0 0 64 64" width="512" xmlns="http://www.w3.org/2000/svg"><path d="m6.99997 60.4912h32c1.4043.23444 5.55164-1.92395 3.84186-3.49323-.44928-.32123-1.07379-.21674-1.39508.23151-.56592.79004-1.48047 1.26172-2.44678 1.26172h-32c-1.6543 0-3-1.3457-3-3v-43c0-1.6543 1.3457-3 3-3h32c1.6543 0 3 1.3457 3 3v12.47998c.0191 1.3172 1.98108 1.31049 2-.00006v-12.47992c0-2.75684-2.24316-5-5-5h-30.81574c.41412-1.1615 1.51379-2 2.81573-2h32c1.6543 0 3 1.3457 3 3v16c0 .55225.44775 1 1 1s1-.44775 1-1v-16c0-2.75684-2.24316-5-5-5h-31.99999c-2.44586 0-4.47876 1.76825-4.9082 4.0918-2.32355.42944-4.0918 2.46234-4.0918 4.9082v43c0 2.75684 2.24316 5 5 5z"/><path d="m18.3754 15.71044c.00006 0-1.44336 1.15472-1.44336 1.15472-.28906-1.35437-1.49268-2.37396-2.93207-2.37396h-4c-1.6543 0-3 1.3457-3 3v4c0 1.6543 1.3457 3 3 3h4c1.6543 0 3-1.3457 3-3v-2.11963l2.62451-2.09961c1.01825-.8208-.22522-2.37378-1.24908-1.56152zm-3.37543 2.70032-.92578.7406-1.36719-1.36719c-.92773-.92017-2.33539.48505-1.414 1.41406-.00006 0 1.99994 2 1.99994 2 .55829.54639 1.22437.24457 1.70703-.22668v.51965c0 .55127-.44873 1-1 1h-4c-.55127 0-1-.44873-1-1v-4c0-.55127.44873-1 1-1h4c.55127 0 1 .44873 1 1z"/><path d="m29.99997 19.4912h-9c-1.31232.02167-1.31592 1.9776.00006 2-.00006 0 8.99994 0 8.99994 0 1.31171-.02155 1.31647-1.97754 0-2z"/><path d="m16.99997 31.37182 2.62451-2.09985c1.01825-.8208-.22522-2.37415-1.24908-1.56152.00006 0-1.44336 1.15472-1.44336 1.15472-.28906-1.35437-1.49268-2.37396-2.93207-2.37396h-4c-1.6543 0-3 1.3457-3 3v4c0 1.6543 1.3457 3 3 3h4c1.6543 0 3-1.3457 3-3v-2.11938zm-2-.96106-.92578.7406-1.36719-1.36719c-.92773-.92017-2.33539.48505-1.414 1.41406-.00006 0 1.99994 2 1.99994 2 .55792.54614 1.22467.24493 1.70703-.2262v.51917c0 .55176-.44873 1-1 1h-4c-.55127 0-1-.44824-1-1v-4c0-.55127.44873-1 1-1h4c.55127 0 1 .44873 1 1z"/><path d="m53.37546 36.70995-9.30127 7.44141-3.36719-3.36719c-.92468-.92023-2.33704.48505-1.414 1.41406-.00006 0 3.99994 4 3.99994 4 .36047.36115.93512.3913 1.33154.07422l10-8c1.01331-.81738-.21991-2.3786-1.24902-1.5625z"/><path d="m46.99997 26.4912c-8.271 0-15 6.72852-15 15 .82361 19.8996 29.17944 19.8938 30.00006-.00012-.00006-8.27136-6.72906-14.99988-15.00006-14.99988zm0 28c-7.16846 0-13-5.83203-13-13 .71417-17.24628 25.28851-17.24127 26.00006.00006-.00006 7.16791-5.8316 12.99994-13.00006 12.99994z"/><path d="m29.99997 31.4912h-9c-1.31171.02112-1.31653 1.97791.00006 2-.00006 0 8.99994 0 8.99994 0 1.31177-.02118 1.31653-1.97791 0-2z"/><path d="m13.99997 38.4912h-4c-1.6543 0-3 1.3457-3 3v4c0 1.6543 1.3457 3 3 3h4c1.6543 0 3-1.3457 3-3v-4c0-1.6543-1.3457-3-3-3zm1 7c0 .55176-.44873 1-1 1h-4c-.55127 0-1-.44824-1-1v-4c0-.55176.44873-1 1-1 5.99829.10126 4.8974-.99359 5 5z"/><path d="m20.99997 43.4912c-1.31171.02112-1.31653 1.97791.00006 2-.00006 0 8.99994 0 8.99994 0 1.31177-.02118 1.31653-1.97791 0-2z"/></svg>