<svg enable-background="new 0 0 512 512" viewBox="0 0 512 512" xmlns="http://www.w3.org/2000/svg"><g id="_x30_7_Boost"><g><path d="m117.166 37.19c-11.642 0-21.112 9.471-21.112 21.112s9.471 21.112 21.112 21.112 21.112-9.471 21.112-21.112-9.47-21.112-21.112-21.112zm0 30.181c-5.001 0-9.068-4.067-9.068-9.068s4.067-9.068 9.068-9.068 9.068 4.067 9.068 9.068-4.067 9.068-9.068 9.068z"/><path d="m175.323 37.19c-11.642 0-21.112 9.471-21.112 21.112s9.471 21.112 21.112 21.112 21.112-9.471 21.112-21.112-9.47-21.112-21.112-21.112zm0 30.181c-5.001 0-9.068-4.067-9.068-9.068s4.067-9.068 9.068-9.068 9.068 4.067 9.068 9.068-4.067 9.068-9.068 9.068z"/><path d="m393.409 37.209h-64.173c-11.63 0-21.094 9.464-21.094 21.094s9.464 21.091 21.094 21.091h64.173c11.63 0 21.094-9.461 21.094-21.091s-9.464-21.094-21.094-21.094zm0 30.141h-64.173c-4.989 0-9.05-4.058-9.05-9.047s4.06-9.05 9.05-9.05h64.173c4.989 0 9.05 4.06 9.05 9.05s-4.061 9.047-9.05 9.047z"/><path d="m140.21 142.19h-61.616c-3.326 0-6.022 2.696-6.022 6.022s2.696 6.022 6.022 6.022h61.616c3.326 0 6.022-2.696 6.022-6.022s-2.696-6.022-6.022-6.022z"/><path d="m111.287 178.657h-32.693c-3.326 0-6.022 2.696-6.022 6.022s2.696 6.022 6.022 6.022h32.693c3.326 0 6.022-2.696 6.022-6.022 0-3.327-2.696-6.022-6.022-6.022z"/><path d="m377.671 285.252h61.616c3.326 0 6.022-2.696 6.022-6.022s-2.696-6.022-6.022-6.022h-61.616c-3.326 0-6.022 2.696-6.022 6.022s2.696 6.022 6.022 6.022z"/><path d="m434.888 309.674h-32.696c-3.326 0-6.022 2.696-6.022 6.022s2.696 6.022 6.022 6.022h32.696c3.326 0 6.022-2.696 6.022-6.022s-2.696-6.022-6.022-6.022z"/><path d="m256 222.794c-27.363 0-49.623 22.26-49.623 49.623 0 27.384 22.26 49.663 49.623 49.663s49.623-22.279 49.623-49.663c0-27.363-22.26-49.623-49.623-49.623zm0 87.242c-20.722 0-37.579-16.876-37.579-37.619 0-20.722 16.857-37.579 37.579-37.579s37.579 16.857 37.579 37.579c0 20.743-16.857 37.619-37.579 37.619z"/><path d="m298.909 418.763 3.054-8.407h108.312c35.081 0 63.62-28.539 63.62-63.62 0-40.972 0-200.257 0-273.187 0-35.081-28.539-63.62-63.62-63.62h-308.55c-35.081 0-63.62 28.539-63.62 63.62v273.187c0 35.081 28.539 63.62 63.62 63.62h108.312l3.054 8.407c2.091 5.754 7.608 9.619 13.728 9.619h1.928c-1.217 2.124-2.594 4.169-4.313 5.984-27.093 28.591-58.737-12.713-97.506 21.263-11.724 10.275-18.539 25.431-18.226 40.545.066 3.282 2.75 5.897 6.017 5.897.042 0 .085 0 .127-.002 3.324-.068 5.966-2.818 5.895-6.144-.238-11.599 5.041-23.279 14.124-31.239 33.403-29.27 65.301 12.826 98.315-22.039 3.938-4.159 6.859-9.048 8.862-14.265h27.844c2.021 5.219 4.993 10.102 8.935 14.265 32.445 34.255 64.963-7.177 98.315 22.039 9.082 7.96 14.361 19.64 14.124 31.239-.071 3.326 2.571 6.076 5.895 6.144.042.002.085.002.127.002 3.267 0 5.951-2.616 6.017-5.897.313-15.114-6.502-30.27-18.226-40.545-39.075-34.236-70.256 7.493-97.506-21.263-1.731-1.828-3.207-3.845-4.435-5.984h2.05c6.12-.001 11.636-3.866 13.727-9.619zm7.429-20.452 1.219-3.356c2.765-4.31 5.34-8.942 7.736-13.835l25.15 17.192h-34.105zm38.45-11.618-24.526-16.765c5.467-13.635 9.624-28.908 12.321-45.203 8.898 7.493 14.898 17.716 17.073 29.284 2.118 11.272.387 22.674-4.868 32.684zm-294.639-313.145c0-28.481 23.179-51.576 51.576-51.576h308.55c28.373 0 51.576 23.073 51.576 51.576v15.199h-411.702zm51.576 324.763c-28.438 0-51.576-23.138-51.576-51.576v-245.944h411.702v245.945c0 28.438-23.138 51.576-51.576 51.576h-58.449c9.286-13.732 12.727-30.232 9.666-46.527-3.096-16.467-12.439-30.741-26.299-40.188-.236-.161-.485-.287-.723-.443 1.14-10.165 1.749-20.626 1.749-31.265 0-81.114-73.159-145.456-76.273-148.157-2.263-1.962-5.627-1.962-7.89 0-3.115 2.701-76.273 67.042-76.273 148.157 0 11.626.712 23.045 2.067 34.088-.341.222-.697.402-1.034.633-13.87 9.452-23.211 23.728-26.307 40.195-2.841 15.124-.029 30.406 7.805 43.507h-56.589zm187.874-214.362h-67.165c9.787-14.004 21.866-28.19 33.569-39.452 11.11 10.655 23.475 24.973 33.596 39.452zm-127.254 173.078c2.21-11.752 8.373-22.114 17.514-29.642 2.864 16.241 7.177 31.436 12.812 44.924l-25.458 17.401c-5.256-10.006-6.987-21.408-4.868-32.683zm13.63 41.284 21.837-14.927c2.086 4.087 4.304 7.974 6.654 11.634l1.196 3.292h-29.687zm37.395-11.719c-16.264-26.462-25.543-65.102-25.543-106.703 0-31.328 12.282-60.46 26.705-83.895h82.969c14.409 23.419 26.673 52.54 26.673 83.895 0 41.587-9.287 80.23-25.56 106.703zm13.449 29.745c-1.075 0-2.042-.677-2.409-1.687l-5.814-16.006h74.808l-5.814 16.006c-.367 1.009-1.334 1.687-2.409 1.687z"/></g></g><g id="Layer_1"/></svg>