<svg height="512" viewBox="0 0 44 60" width="512" xmlns="http://www.w3.org/2000/svg"><g id="003---Cipher-Text"><path id="Shape" d="m3 60h38c1.6568542 0 3-1.3431458 3-3v-45.757c-.0014526-.5536783-.118269-1.1009785-.343-1.607-.012-.031-.031-.056-.046-.086-.1928571-.42137324-.4578398-.80581811-.783-1.136l-7.242-7.242c-.3420483-.33542771-.7417769-.60643013-1.18-.8l-.024-.015c-.5102934-.23161361-1.063616-.35324918-1.624-.357h-29.758c-1.65685425 0-3 1.34314575-3 3v54c0 1.6568542 1.34314575 3 3 3zm37.586-51h-4.586c-.5522847 0-1-.44771525-1-1v-4.586zm-38.586-6c0-.55228475.44771525-1 1-1h29.758c.0810817.00304149.1619003.01105656.242.024v5.976c0 1.65685425 1.3431458 3 3 3h5.976c.0130427.0804225.0210583.1615799.024.243v45.757c0 .5522847-.4477153 1-1 1h-38c-.55228475 0-1-.4477153-1-1z"/><path id="Shape" d="m19 44v1c0 1.6568542 1.3431458 3 3 3s3-1.3431458 3-3v-1c1.7217216-1.2912912 2.4239867-3.5394281 1.7434165-5.5811388s-2.5912645-3.4188612-4.7434165-3.4188612-4.0628463 1.3771505-4.7434165 3.4188612.0216949 4.2898476 1.7434165 5.5811388zm3-7c1.3543116.0039439 2.5380451.9147822 2.888865 2.2228727s-.2182777 2.6890248-1.388865 3.3701273c-.3097028.1788068-.5003484.5093863-.5.867v1.54c0 .5522847-.4477153 1-1 1s-1-.4477153-1-1v-1.54c.0003484-.3576137-.1902972-.6881932-.5-.867-1.1705873-.6811025-1.7396849-2.0620368-1.388865-3.3701273s1.5345534-2.2189288 2.888865-2.2228727z"/><path id="Path" d="m6 12h22c.5522847 0 1-.4477153 1-1s-.4477153-1-1-1h-22c-.55228475 0-1 .4477153-1 1s.44771525 1 1 1z"/><path id="Shape" d="m6 50c-.55228475 0-1 .4477153-1 1s.44771525 1 1 1h3.184c.42225455 1.1943509 1.5492146 1.9947486 2.816 2h20c1.2667854-.0052514 2.3937454-.8056491 2.816-2h3.184c.5522847 0 1-.4477153 1-1s-.4477153-1-1-1h-3v-3h3c.5522847 0 1-.4477153 1-1s-.4477153-1-1-1h-3v-3h3c.5522847 0 1-.4477153 1-1s-.4477153-1-1-1h-3v-3h3c.5522847 0 1-.4477153 1-1s-.4477153-1-1-1h-3v-3h3c.5522847 0 1-.4477153 1-1s-.4477153-1-1-1h-3.78c-.5642399-.6337052-1.3715062-.9973386-2.22-1v-2h6c.5522847 0 1-.4477153 1-1s-.4477153-1-1-1h-6v-1c.0007873-.6716974-.0662189-1.3417594-.2-2h6.2c.5522847 0 1-.4477153 1-1s-.4477153-1-1-1h-6.841c-.4888531-1.1149882-1.1767511-2.1315863-2.03-3h8.871c.5522847 0 1-.4477153 1-1s-.4477153-1-1-1h-11.67c-2.7326865-1.3334009-5.9273135-1.3334009-8.66 0h-11.67c-.55228473 0-.99999996.4477153-.99999996 1s.44771523 1 .99999996 1h8.871c-.8532489.8684137-1.5411469 1.8850118-2.03 3h-6.841c-.55228475 0-1 .4477153-1 1s.44771525 1 1 1h6.2c-.1337811.6582406-.2007873 1.3283026-.2 2v1h-6c-.55228475 0-1 .4477153-1 1s.44771525 1 1 1h6v2c-.8484938.0026614-1.6557601.3662948-2.22 1h-3.78c-.55228475 0-1 .4477153-1 1s.44771525 1 1 1h3v3h-3c-.55228475 0-1 .4477153-1 1s.44771525 1 1 1h3v3h-3c-.55228475 0-1 .4477153-1 1s.44771525 1 1 1h3v3h-3c-.55228475 0-1 .4477153-1 1s.44771525 1 1 1h3v3zm8-26c0-4.418278 3.581722-8 8-8s8 3.581722 8 8v5h-2v-5c0-3.3137085-2.6862915-6-6-6s-6 2.6862915-6 6v5h-2zm4 5v-2h8v2zm8-4h-8v-1c0-2.209139 1.790861-4 4-4s4 1.790861 4 4zm-14 6h20c.5522847 0 1 .4477153 1 1v19c0 .5522847-.4477153 1-1 1h-20c-.5522847 0-1-.4477153-1-1v-19c0-.5522847.4477153-1 1-1z"/></g></svg>