<svg id="Online_Store" enable-background="new 0 0 64 64" height="512" viewBox="0 0 64 64" width="512" xmlns="http://www.w3.org/2000/svg"><path d="m28.40716 46.96746c-1.35291 0-2.45279-1.09887-2.45279-2.45178s1.09987-2.45178 2.45279-2.45178c1.35291 0 2.45279 1.09887 2.45279 2.45178s-1.09988 2.45178-2.45279 2.45178zm0-2.83891c-.21372 0-.38813.1734-.38813.38712 0 .42745.77626.42745.77626 0 0-.21372-.1744-.38712-.38813-.38712zm9.22038 2.83891c-1.35292 0-2.45178-1.09887-2.45178-2.45178s1.09887-2.45178 2.45178-2.45178 2.45178 1.09887 2.45178 2.45178-1.09886 2.45178-2.45178 2.45178zm0-2.83891c-.21373 0-.38712.1734-.38712.38712 0 .42745.77424.42745.77424 0 0-.21372-.17339-.38712-.38712-.38712zm7.7223-20.70503c-.45769-.59681-1.1533-.93857-1.90537-.93857h-23.45597l-.61118-2.28544c-.3095-1.16036-1.364-1.96989-2.56469-1.96989h-1.53841c-.5706 0-1.03233.46173-1.03233 1.03233s.46173 1.03233 1.03233 1.03233h1.53841c.26716 0 .50104.18046.5706.43854l4.93078 18.43572c.36091 1.3509 1.58982 2.29451 2.98811 2.29451h16.54951c.5706 0 1.03233-.46173 1.03233-1.03233s-.46172-1.03233-1.03233-1.03233h-16.54952c-.46475 0-.87405-.31454-.99402-.76215l-.37641-1.40735h3.41694 9.74058 2.38121c1.86908 0 3.51233-1.26218 3.99624-3.06876l2.30056-8.6528c.19356-.72787.04032-1.48699-.41737-2.08381zm-1.63721 1.25815c.03831.0494.09678.15324.05847.29538l-1.02338 3.84804h-3.626l.57514-4.27549h3.74761c.14517.00001.22985.08267.26816.13207zm-6.67295 4.14343h-3.79348v-4.27549h4.36925zm-5.85814-4.27549v4.27549h-3.78982l-.57943-4.27549zm-6.45293 0 .5793 4.27549h-3.61869l-1.14549-4.27549zm.85893 6.34015.57917 4.27448h-2.77904l-1.14524-4.27448zm2.08406 0h3.50994v4.27448h-2.93064zm5.5746 4.27448v-4.27448h3.51536l-.57564 4.27448zm6.22421 0h-1.20157l.57501-4.27448h3.35482l-.72813 2.73809c-.24195.9053-1.06458 1.53639-2.00013 1.53639zm-21.98645-28.18195c0-.53455-.43255-.96711-.96711-.96711h-10.61969c-.53455 0-.96711.43255-.96711.96711s.43255.96711.96711.96711h10.61969c.53455 0 .96711-.43255.96711-.96711zm29.16428-.00012c0 .57014-.46219 1.03233-1.03233 1.03233s-1.03233-.46219-1.03233-1.03233.46219-1.03233 1.03233-1.03233c.57014.00001 1.03233.4622 1.03233 1.03233zm3.22655-1.03232c-.57014 0-1.03233.46219-1.03233 1.03233s.46219 1.03233 1.03233 1.03233 1.03233-.46219 1.03233-1.03233-.46219-1.03233-1.03233-1.03233zm4.25888 0c-.57014 0-1.03233.46219-1.03233 1.03233s.46219 1.03233 1.03233 1.03233 1.03233-.46219 1.03233-1.03233-.46219-1.03233-1.03233-1.03233zm9.11053 45.11064-3.16614-2.66931c.00214-.06366.01196-.12616.01196-.18994v-40.33002c0-3.10004-2.53003-5.63-5.63-5.63h-48.83002c-3.09998 0-5.63 2.52997-5.63 5.63v40.33002c0 3.09998 2.53003 5.62994 5.63 5.62994h43.33795l.0011 3.86682c0 .8327.46777 1.56866 1.22186 1.92151.74799.34882 1.617.23993 2.25616-.29034l1.93359-1.60693 1.07672 2.31262c.33264.7218.9295 1.27026 1.67548 1.54242.3327.12103.6795.18152 1.02228.18152.42743 0 .85492-.09277 1.25409-.27826.71985-.33472 1.26825-.93152 1.54047-1.67755.27216-.74805.23792-1.55658-.09882-2.27435l-1.07465-2.31464 2.47394-.44159c.8186-.14716 1.45978-.73798 1.67554-1.54242.21571-.8025-.04638-1.6352-.68151-2.1695zm-61.18421-43.18927c0-1.96002 1.59998-3.56 3.57001-3.56h48.83002c1.96997 0 3.57001 1.59998 3.57001 3.56v1.77997h-55.97004zm46.90503 35.71093.00232 8.17908h-43.33734c-1.97003 0-3.57001-1.60004-3.57001-3.56v-36.48004h55.97003v34.94336l-5.57892-4.70349c-.63916-.54034-1.5061-.64923-2.26019-.30042-.7561.35083-1.22589 1.08674-1.22589 1.92151zm12.92023 9.15784-3.7926.67749c-.31458.05646-.58673.25604-.73395.54034-.14917.2843-.15521.62103-.02014.91138l1.64124 3.53247c.10284.21777.11292.46576.03027.6936-.08472.22784-.25208.41132-.46985.51416-.22174.10083-.4718.11292-.69757.0282-.22986-.08264-.41138-.25-.51416-.4718l-1.64124-3.52844c-.13513-.29034-.39722-.50208-.70972-.57263-.07465-.01611-.15125-.02417-.22583-.02417-.23792 0-.4718.08264-.65936.23792l-3.05865 2.41949.08673-14.16022 10.79303 9.09943z"/></svg>