<svg id="Layer_1" enable-background="new 0 0 512 512" height="512" viewBox="0 0 512 512" width="512" xmlns="http://www.w3.org/2000/svg"><path d="m481.596 246.221h-15.646v-4.819c0-9.8-7.986-17.773-17.803-17.773h-10.857c-9.815 0-17.801 7.973-17.801 17.773v4.819h-40.705v-4.819c0-9.129-6.933-16.666-15.817-17.655v-215.75c0-4.415-3.579-7.994-7.994-7.994h-346.961c-4.415 0-7.994 3.579-7.994 7.994v496.006c0 4.415 3.579 7.994 7.994 7.994h473.584c16.755 0 30.387-12.768 30.387-28.46v-208.885c-.001-15.677-13.632-28.431-30.387-28.431zm-46.119-4.82c0-.968.83-1.786 1.813-1.786h10.857c.983 0 1.814.818 1.814 1.786v31.55c0 .968-.831 1.785-1.814 1.785h-10.857c-.982 0-1.813-.817-1.813-1.785zm-15.989 20.807v10.743c0 9.8 7.985 17.773 17.801 17.773h10.857c9.816 0 17.803-7.974 17.803-17.773v-10.743h15.646c7.939 0 14.398 5.583 14.398 12.444v29.281h-276.432v-29.281c0-6.861 6.46-12.444 14.4-12.444h11.196v10.743c0 9.8 7.986 17.773 17.802 17.773h10.857c9.815 0 17.801-7.974 17.801-17.773v-10.743h40.705v10.743c0 9.8 7.986 17.773 17.803 17.773h10.855c9.816 0 17.803-7.974 17.803-17.773v-10.743zm-158.342 10.743v-31.55c0-.968.83-1.786 1.813-1.786h10.857c.982 0 1.813.818 1.813 1.786v31.55c0 .968-.83 1.785-1.813 1.785h-10.857c-.983 0-1.813-.817-1.813-1.785zm99.834-33.335c.983 0 1.814.818 1.814 1.786v31.55c0 .968-.831 1.785-1.814 1.785h-10.855c-.983 0-1.814-.817-1.814-1.785v-31.55c0-.968.831-1.786 1.814-1.786zm-344.974-223.625h330.972v207.933c-8.318 1.49-14.655 8.751-14.655 17.478v4.819h-40.705v-4.819c0-9.8-7.985-17.773-17.801-17.773h-10.857c-9.815 0-17.802 7.973-17.802 17.773v4.819h-11.196c-16.756 0-30.389 12.754-30.389 28.432v208.885c0 4.471 1.11 8.703 3.08 12.472h-190.647zm465.59 480.018h-247.635c-7.806 0-14.4-5.711-14.4-12.472v-163.615h276.434v163.615c-.001 6.877-6.46 12.472-14.399 12.472zm-179.689-151.569h-41.046c-4.415 0-7.994 3.579-7.994 7.994v41.018c0 4.415 3.579 7.994 7.994 7.994h41.046c4.415 0 7.994-3.579 7.994-7.994v-41.018c0-4.414-3.579-7.994-7.994-7.994zm-7.994 41.018h-25.058v-25.029h25.058zm83.679-41.018h-41.018c-4.415 0-7.994 3.579-7.994 7.994v41.018c0 4.415 3.579 7.994 7.994 7.994h41.018c4.415 0 7.994-3.579 7.994-7.994v-41.018c0-4.414-3.579-7.994-7.994-7.994zm-7.994 41.018h-25.029v-25.029h25.029zm-67.691 29.026h-41.046c-4.415 0-7.994 3.579-7.994 7.994v41.018c0 4.415 3.579 7.994 7.994 7.994h41.046c4.415 0 7.994-3.579 7.994-7.994v-41.018c0-4.415-3.579-7.994-7.994-7.994zm-7.994 41.018h-25.058v-25.029h25.058zm83.679-41.018h-41.018c-4.415 0-7.994 3.579-7.994 7.994v41.018c0 4.415 3.579 7.994 7.994 7.994h41.018c4.415 0 7.994-3.579 7.994-7.994v-41.018c0-4.415-3.579-7.994-7.994-7.994zm-7.994 41.018h-25.029v-25.029h25.029zm85.125-111.062h-41.045c-4.415 0-7.994 3.579-7.994 7.994v41.018c0 4.415 3.579 7.994 7.994 7.994h41.045c4.415 0 7.994-3.579 7.994-7.994v-41.018c0-4.414-3.579-7.994-7.994-7.994zm-7.994 41.018h-25.057v-25.029h25.057zm7.994 29.026h-41.045c-4.415 0-7.994 3.579-7.994 7.994v41.018c0 4.415 3.579 7.994 7.994 7.994h41.045c4.415 0 7.994-3.579 7.994-7.994v-41.018c0-4.415-3.579-7.994-7.994-7.994zm-7.994 41.018h-25.057v-25.029h25.057zm-397.645-312.52v-85.918c0-4.415 3.579-7.994 7.994-7.994h92.893c4.415 0 7.994 3.579 7.994 7.994s-3.579 7.994-7.994 7.994h-84.899v69.931h76.904v-24.328l-14.867 13.495c-1.527 1.386-3.451 2.075-5.372 2.075-2.048 0-4.093-.783-5.649-2.337l-18.227-18.199c-3.124-3.119-3.128-8.181-.008-11.305 3.117-3.124 8.18-3.128 11.305-.009l12.841 12.821 38.585-35.023c3.269-2.967 8.322-2.724 11.292.546 2.967 3.269 2.723 8.324-.546 11.292l-13.365 12.131v46.834c0 4.415-3.579 7.994-7.994 7.994h-92.893c-4.415 0-7.994-3.579-7.994-7.994zm0 155.963v-85.89c0-4.415 3.579-7.994 7.994-7.994h92.893c4.415 0 7.994 3.579 7.994 7.994s-3.579 7.994-7.994 7.994h-84.899v69.902h76.904v-24.3l-14.867 13.495c-1.527 1.387-3.451 2.075-5.372 2.075-2.05 0-4.097-.784-5.653-2.342l-18.227-18.227c-3.122-3.122-3.122-8.183 0-11.305 3.121-3.122 8.184-3.122 11.305 0l12.841 12.841 38.581-35.019c3.269-2.968 8.322-2.724 11.292.546 2.967 3.269 2.723 8.324-.546 11.292l-13.365 12.131v46.807c0 4.415-3.579 7.994-7.994 7.994h-92.893c-4.415 0-7.994-3.579-7.994-7.994zm122.794 85.764c2.966 3.27 2.72 8.325-.551 11.291l-13.362 12.12v46.815c0 4.415-3.579 7.994-7.994 7.994h-92.893c-4.415 0-7.994-3.579-7.994-7.994v-85.89c0-4.415 3.579-7.994 7.994-7.994h92.893c4.415 0 7.994 3.579 7.994 7.994s-3.579 7.994-7.994 7.994h-84.899v69.901h76.904v-24.319l-14.87 13.488c-1.526 1.385-3.449 2.073-5.369 2.073-2.048 0-4.093-.783-5.649-2.338l-18.227-18.199c-3.124-3.119-3.128-8.181-.008-11.305 3.117-3.124 8.18-3.128 11.305-.008l12.843 12.823 38.586-34.999c3.268-2.965 8.323-2.719 11.291.553zm31.694-327.645c0-4.415 3.579-7.994 7.994-7.994h103.947c4.415 0 7.994 3.579 7.994 7.994s-3.579 7.994-7.994 7.994h-103.947c-4.415 0-7.994-3.579-7.994-7.994zm0 42.945c0-4.415 3.579-7.994 7.994-7.994h103.947c4.415 0 7.994 3.579 7.994 7.994s-3.579 7.994-7.994 7.994h-103.947c-4.415 0-7.994-3.579-7.994-7.994z"/></svg>