<svg viewBox="0 0 64 64" xmlns="http://www.w3.org/2000/svg"><path d="m62 .83h-60a2 2 0 0 0 -2 2v25a2 2 0 0 0 2 2h9.06a21.15 21.15 0 0 0 31.05 21.6l10 10a6 6 0 0 0 4.24 1.75 6 6 0 0 0 4.24-10.24l-10-10a20.57 20.57 0 0 0 2.34-13.11h9.07a2 2 0 0 0 2-2v-25a2 2 0 0 0 -2-2zm-30 49.17a17.18 17.18 0 1 1 17.18-17.17 17.2 17.2 0 0 1 -17.18 17.17zm25.75 5.74a2 2 0 0 1 0 2.84 2 2 0 0 1 -2.84 0l-9.44-9.45a21.7 21.7 0 0 0 2.84-2.83zm2.25-29.91h-8c-.12-.34-.23-.67-.36-1h2.36v-12h-4v8.9c-.31-.5-.65-1-1-1.47v-14.43h-4v10.32c-.33-.26-.66-.51-1-.75v-9.57h-4v7.4a20.42 20.42 0 0 0 -11-1.34v-6.06h-4v7c-.34.12-.67.23-1 .36v-7.36h-4v9.57c-.34.24-.67.49-1 .75v-3.32h-4v7.43c-.35.47-.69 1-1 1.47v-8.9h-4v12h2.4c-.13.33-.24.66-.36 1h-8.04v-21h56z"/><path d="m5 5.83h4v19h-4z"/><path d="m55 12.83h4v12h-4z"/></svg>