<?xml version="1.0" encoding="utf-8"?>
<!-- Generator: Adobe Illustrator 27.0.0, SVG Export Plug-In . SVG Version: 6.00 Build 0)  -->
<svg version="1.1" id="Layer_1" xmlns="http://www.w3.org/2000/svg" xmlns:xlink="http://www.w3.org/1999/xlink" x="0px" y="0px"
	 viewBox="0 0 500 500" style="enable-background:new 0 0 500 500;" xml:space="preserve">
<style type="text/css">
	.st0{fill:#E0E0E0;}
	.st1{fill:#F0F0F0;}
	.st2{fill:#FFFFFF;}
	.st3{fill:#E6E6E6;}
	.st4{fill:#263238;}
	.st5{fill:#B8CD06;}
	.st6{fill:#455A64;}
	.st7{fill:#E8E8E3;}
	.st8{font-family:'Montserrat-Regular';}
	.st9{font-size:8.299px;}
	.st10{opacity:0.1;enable-background:new    ;}
	.st11{opacity:0.2;fill:#FFFFFF;enable-background:new    ;}
	.st12{opacity:0.2;}
	.st13{opacity:0.5;}
	.st14{fill:#FFBE9D;}
	.st15{fill:#F5F5F5;}
	.st16{fill:#EBEBEB;}
	.st17{opacity:0.3;}
	.st18{fill:#EB996E;}
</style>
<g id="freepik--background-complete--inject-2">
	<path class="st0" d="M466.9,316.2H303v-94.8h163.9V316.2z M304,315.2h161.9v-92.8H304V315.2z"/>
	<rect x="325" y="271.9" class="st1" width="108.1" height="3.2"/>
	<rect x="325" y="283.8" class="st1" width="115.6" height="3.5"/>
	<rect x="325" y="295.7" class="st1" width="115.6" height="3.5"/>
	<rect x="325" y="254.8" class="st1" width="37.8" height="8.2"/>
	<rect x="303.5" y="221.9" class="st0" width="162.9" height="15.1"/>
	<path class="st2" d="M453.9,234.7c-0.2-0.2,1.9-2.7,4.7-5.6s5.2-5.1,5.4-4.9s-1.9,2.7-4.7,5.7S454.1,234.9,453.9,234.7z"/>
	<path class="st2" d="M464,234.7c-0.2,0.2-2.6-2-5.4-4.9s-4.9-5.5-4.7-5.7s2.6,2,5.4,4.9S464.2,234.5,464,234.7z"/>
	<rect x="102.4" y="34" class="st3" width="162.9" height="93.8"/>
	<rect x="123.8" y="84.1" class="st1" width="108.1" height="3.2"/>
	<rect x="123.8" y="95.9" class="st1" width="115.6" height="3.5"/>
	<rect x="123.8" y="107.9" class="st1" width="115.6" height="3.5"/>
	<rect x="123.8" y="67" class="st1" width="37.8" height="8.2"/>
	<rect x="102.4" y="34" class="st0" width="162.9" height="15.1"/>
	<path class="st2" d="M252.1,46.8c-0.2-0.2,1.9-2.7,4.7-5.7s5.2-5.1,5.4-4.9s-1.9,2.7-4.7,5.7S252.3,47,252.1,46.8z"/>
	<path class="st2" d="M262.3,46.8c-0.2,0.2-2.6-2-5.4-4.9s-4.9-5.5-4.7-5.7s2.6,2,5.4,4.9C260.4,44.1,262.5,46.6,262.3,46.8z"/>
	<path class="st0" d="M203.5,208.4H39.7v-94.8h163.9V208.4z M40.7,207.4h161.9v-92.8H40.7L40.7,207.4z"/>
	<rect x="61.6" y="164.1" class="st1" width="108.1" height="3.2"/>
	<rect x="61.6" y="175.9" class="st1" width="115.6" height="3.5"/>
	<rect x="61.6" y="187.9" class="st1" width="115.6" height="3.5"/>
	<rect x="61.6" y="146.9" class="st1" width="37.8" height="8.2"/>
	<rect x="40.2" y="114" class="st0" width="162.9" height="15.1"/>
	<rect x="200.4" y="230.1" class="st3" width="192.3" height="172.2"/>
	<rect x="59.4" y="175.9" class="st1" width="150.6" height="156.5"/>
	<rect x="59.4" y="175.9" class="st0" width="150.6" height="17.1"/>
	<path class="st2" d="M71.8,184.2c-0.1,1.7-1.6,3.1-3.3,3c-1.7-0.1-3.1-1.6-3-3.3c0.1-1.7,1.5-3,3.2-3
		C70.4,181,71.9,182.5,71.8,184.2z"/>
	<path class="st2" d="M84.7,184.2c-0.1,1.7-1.5,3.1-3.3,3c-1.7-0.1-3.1-1.5-3-3.3c0.1-1.7,1.5-3,3.2-3
		C83.3,181,84.7,182.5,84.7,184.2z"/>
	<path class="st2" d="M97.5,184.2c-0.1,1.7-1.5,3.1-3.3,3c-1.7-0.1-3.1-1.5-3-3.3c0.1-1.7,1.5-3,3.2-3
		C96.1,181,97.5,182.5,97.5,184.2z"/>
	<rect x="253.1" y="68.3" class="st1" width="192.3" height="191.7"/>
	<rect x="253.1" y="68.3" class="st0" width="192.3" height="22.4"/>
	<path class="st2" d="M269.5,79.3c-0.1,2.3-2,4.1-4.3,4c-2.3-0.1-4.1-2-4-4.3c0.1-2.2,1.9-4,4.2-4C267.6,75,269.5,76.9,269.5,79.3z"
		/>
	<path class="st2" d="M285.1,76.3c1.6,1.7,1.5,4.3-0.2,5.9c-1.7,1.6-4.3,1.5-5.9-0.2c-1.5-1.7-1.5-4.2,0.1-5.8
		C280.8,74.6,283.5,74.6,285.1,76.3z"/>
	<path class="st2" d="M303.2,79.3c-0.1,2.3-2,4.1-4.3,4c-2.3-0.1-4.1-2-4-4.3c0.1-2.2,1.9-4,4.2-4C301.4,75,303.3,76.9,303.2,79.3z"
		/>
</g>
<g id="freepik--Floor--inject-2">
	<path class="st4" d="M403.8,453.1c0,0.1-69.4,0.3-155.1,0.3s-155.1-0.1-155.1-0.3s69.4-0.3,155.1-0.3S403.8,453,403.8,453.1z"/>
</g>
<g id="freepik--Plant--inject-2">
	<path class="st5" d="M336.2,330.7c-15.5-10.8-19-30.8-18.3-48.8c0.1-3-0.2-6.2,1.2-8.8s4.8-4.4,7.5-3.2c2.2,1,3.2,3.6,4.5,5.8
		c1.7,2.9,4.1,5.2,7,6.7c1.9,1,4.3,1.6,6.2,0.6c2.6-1.4,2.9-5,2.9-8c0-5.6,0-11.2-0.1-16.7c-0.2-3,0.1-6,0.9-8.9
		c0.9-2.8,3-5.5,5.8-6.3s6.4,0.9,7,3.8c0.1,1.2,0.1,2.5,0.1,3.7c0.1,1.2,0.7,2.6,1.8,3s2.4-0.5,3.3-1.4c3.1-3,5.2-6.9,7.1-10.8
		s3.9-7.8,6.7-11.1s6.7-5.9,11-6.1s8.8,2.4,9.9,6.6s-1.4,8.5-4,11.9c-4,5.1-8.6,9.5-13.9,13.2c-1,0.6-1.8,1.4-2.3,2.5
		c-0.6,2,1.2,4,3.2,4.6c2.2,0.7,4.6,0.5,7,0.8s4.9,1.3,5.7,3.5c1.2,3.1-1.3,6.3-3.9,8.4c-5,4.2-10.8,7.5-16.9,9.8
		c-2.2,0.8-4.5,1.5-6.3,3s-2.8,4.2-1.8,6.3s3.8,2.8,6.1,2.4s4.4-1.7,6.6-2.5c4.1-1.5,9.4-1.3,12,2.3c1.6,2.5,2,5.6,1,8.4
		c-1,2.7-2.5,5.3-4.5,7.4c-6.5,7.8-15.1,13.8-24.7,17.2C354.5,333.3,345.6,334.2,336.2,330.7"/>
	<path class="st4" d="M396.2,226.7c0,0-0.1,0.1-0.3,0.3l-0.9,0.8c-0.8,0.7-1.9,1.7-3.4,3.1c-4.1,3.8-7.9,7.9-11.4,12.3
		c-2.2,2.8-4.5,5.9-7,9.3s-5,7.1-7.5,11c-2.7,4.1-5.1,8.4-7.4,12.8c-1.2,2.3-2.2,4.7-3.2,7.1l-3.1,7.4c-4.1,9.4-7.6,19-10.7,28.8
		c-2.4,8-4.1,16.2-5,24.5c-0.6,5.6-0.7,11.3-0.3,16.9c0.2,2,0.3,3.5,0.5,4.6c0.1,0.5,0.1,0.9,0.1,1.2v0.4c0-0.1-0.1-0.3-0.1-0.4
		c0-0.3-0.1-0.7-0.2-1.2c-0.2-1-0.4-2.6-0.5-4.6c-0.5-5.6-0.4-11.3,0.1-16.9c0.8-8.4,2.5-16.6,4.9-24.6c3-9.8,6.5-19.4,10.6-28.8
		l3.2-7.4c1-2.4,2.1-4.8,3.2-7.1c2.2-4.4,4.7-8.7,7.4-12.8c2.6-4,5.1-7.6,7.6-11s4.8-6.5,7-9.3c3.5-4.4,7.4-8.5,11.6-12.2
		c1.5-1.3,2.7-2.3,3.5-3l0.9-0.8C395.9,226.8,396.1,226.7,396.2,226.7z"/>
	<path class="st4" d="M358,276c-0.1-0.4-0.2-0.8-0.3-1.3c-0.2-0.8-0.3-2-0.5-3.5c-0.4-3-0.9-7.1-1.3-11.7s-1-8.7-1.4-11.6
		c-0.2-1.5-0.4-2.7-0.6-3.5c-0.1-0.4-0.2-0.9-0.2-1.3c0.2,0.4,0.3,0.8,0.4,1.2c0.2,0.8,0.5,2,0.8,3.5c0.6,3,1.1,7.1,1.6,11.6
		s0.9,8.6,1.2,11.7c0.1,1.4,0.3,2.6,0.4,3.5C358,275.1,358,275.6,358,276z"/>
	<path class="st4" d="M396.5,268.8c-0.5,0.1-1,0.2-1.5,0.2c-1,0.1-2.4,0.2-4.2,0.4c-3.5,0.4-8.4,1.1-13.7,2.1s-10.1,2.1-13.5,3
		c-1.7,0.4-3.1,0.8-4,1.1c-0.5,0.2-1,0.3-1.5,0.4c0.5-0.2,0.9-0.4,1.4-0.6c0.9-0.3,2.3-0.8,4-1.3c3.4-1,8.2-2.2,13.5-3.2
		c4.5-0.9,9.1-1.5,13.6-1.9c1.8-0.1,3.2-0.2,4.2-0.2C395.5,268.7,396,268.8,396.5,268.8z"/>
	<path class="st4" d="M341.3,318.7c-0.1-0.1-0.2-0.3-0.3-0.5l-0.7-1.4c-0.6-1.2-1.3-3-2.3-5.2c-1.9-4.4-4.2-10.6-6.8-17.4
		s-4.8-13-6.6-17.5c-0.9-2.2-1.6-3.9-2.1-5.2l-0.6-1.4c-0.1-0.2-0.1-0.3-0.2-0.5c0.1,0.1,0.2,0.3,0.3,0.5l0.7,1.4
		c0.6,1.2,1.3,3,2.3,5.2c1.9,4.4,4.2,10.6,6.8,17.4s4.8,13,6.6,17.5c0.9,2.2,1.6,3.9,2.1,5.2c0.2,0.6,0.4,1,0.6,1.4
		C341.2,318.4,341.3,318.5,341.3,318.7z"/>
	<path class="st4" d="M392.4,302.2c-0.2,0.1-0.3,0.2-0.5,0.2l-1.5,0.5l-5.5,1.8c-4.6,1.5-11,3.6-18,6s-13.4,4.5-18.1,5.9
		c-2.3,0.7-4.2,1.2-5.5,1.6l-1.5,0.4c-0.2,0.1-0.4,0.1-0.5,0.1c0.2-0.1,0.3-0.2,0.5-0.2l1.5-0.5l5.5-1.8c4.6-1.5,11-3.6,18-6
		s13.4-4.5,18-5.9c2.3-0.7,4.2-1.2,5.5-1.6l1.5-0.4C392,302.3,392.2,302.3,392.4,302.2z"/>
</g>
<g id="freepik--Padlock--inject-2">
	<path class="st5" d="M371.5,59.7l-5.1,1.8l-2.2-6.7c-4.1-12.4-17-19-28.9-14.8s-18.2,17.8-14.2,30.2l2.2,6.7l-5.2,1.8
		c-4.1,1.6-6.2,6.1-4.8,10.3l14.3,43.8c1.2,4.1,5.5,6.4,9.6,5.2c0.1,0,0.2,0,0.2-0.1l53.4-19.1c4.2-1.6,6.3-6.2,4.9-10.4l-14.3-43.8
		c-1.3-4.1-5.6-6.4-9.6-5.1C371.7,59.6,371.6,59.7,371.5,59.7z M330.9,66.7c-2.3-6.7,1.2-14,7.8-16.5c6.5-2.2,13.5,1.2,15.7,7.7
		c0,0.1,0.1,0.3,0.1,0.4l2.2,6.7l-23.6,8.4L330.9,66.7z M360.9,105.5l3.7,11.2c0.1,0.5-0.1,1-0.6,1.1l-5.1,1.8
		c-0.4,0.1-0.9-0.1-1-0.5l-3.7-11.1c-4.2-0.2-7.8-3-9-7c-1.8-5.3,0.9-11.2,6.2-13.2c5.1-1.8,10.7,1,12.5,6.1c0,0.1,0.1,0.2,0.1,0.3
		C365.2,98.3,364,102.7,360.9,105.5L360.9,105.5z"/>
	<path class="st4" d="M366.2,61.4c0,0.1-9.5,3.7-21.4,8s-21.6,7.7-21.6,7.6s9.5-3.7,21.4-8S366.1,61.3,366.2,61.4z"/>
	<path class="st4" d="M377.5,63.2c0,0.1,0.1,0.2,0.1,0.3c0.1,0.2,0.2,0.5,0.3,0.8c0.3,0.7,0.6,1.7,1.1,3l3.8,11.2
		c1.6,4.7,3.5,10.4,5.6,16.6c1,3.1,2.2,6.4,3.3,9.8c0.6,1.8,0.8,3.6,0.8,5.5c-0.1,1-0.4,1.9-0.8,2.8c-0.5,0.9-1.1,1.6-1.9,2.2
		c-1.5,1.1-3.3,2-5.1,2.6l-5.1,1.8l-9.8,3.5l-16.5,5.9l-11.1,3.9l-3,1l-0.8,0.3c-0.1,0-0.2,0.1-0.3,0.1c0,0,0.1,0,0.2-0.1l0.8-0.3
		l3-1.1l11.1-4.1l16.5-6l9.7-3.5l5.1-1.9c1.8-0.6,3.4-1.4,4.9-2.5c0.7-0.6,1.3-1.3,1.8-2.1c0.4-0.8,0.7-1.7,0.8-2.6
		c0.1-1.8-0.2-3.6-0.7-5.3c-1.1-3.4-2.2-6.7-3.2-9.8c-2.1-6.2-4-11.9-5.5-16.6s-2.8-8.6-3.7-11.2c-0.4-1.3-0.7-2.3-1-3.1l-0.2-0.8
		C377.5,63.4,377.5,63.3,377.5,63.2z"/>
	<path class="st4" d="M349.3,49.5c0,0-0.5-0.3-1.5-0.7c-1.4-0.5-2.9-0.8-4.4-0.9c-2.2-0.1-4.4,0.3-6.5,1.2c-2.5,1.1-4.6,2.9-6.1,5.1
		c-1.5,2.2-2.3,4.9-2.4,7.6c0,2.2,0.4,4.4,1,6.6c0.5,1.8,1.1,3.3,1.4,4.3c0.2,0.5,0.4,1,0.5,1.6c-0.3-0.5-0.5-1-0.7-1.5
		c-0.4-1-1-2.4-1.6-4.2c-0.7-2.1-1.1-4.4-1.1-6.7c0-2.8,0.8-5.6,2.4-7.9c1.6-2.3,3.8-4.2,6.4-5.3c2.1-0.9,4.4-1.3,6.6-1.1
		c1.5,0.1,3,0.4,4.4,1c0.4,0.2,0.7,0.4,1.1,0.6C349.1,49.3,349.2,49.3,349.3,49.5z"/>
	<path class="st4" d="M349.8,88.6c0.2-0.1,0.3-0.2,0.5-0.2c0.5-0.2,1-0.4,1.5-0.6c0.8-0.2,1.7-0.4,2.6-0.4c1.2-0.1,2.4,0.1,3.5,0.5
		c2.6,0.9,4.9,3.5,6.1,7c0.6,1.9,0.6,3.9,0,5.7c-0.6,2-1.7,3.9-3.2,5.4l0.1-0.3c1.3,3.7,2.8,7.6,4.3,11.7l0.1,0.2l-0.2,0.1l-2.3,0.8
		l-5,1.7l-0.2,0.1l-0.1-0.2c-1.4-4.1-2.9-8-4-11.8l0.2,0.2c-2-0.2-3.8-0.9-5.4-2.1c-1.4-1.1-2.5-2.4-3.4-4c-0.7-1.4-1.1-2.9-1.1-4.5
		c0.1-3.2,1.6-6.3,4.2-8.3C348.5,89.2,349.1,88.8,349.8,88.6c-0.6,0.3-1.2,0.7-1.7,1.1c-1.4,1.2-2.5,2.7-3.1,4.4
		c-1.1,2.6-1,5.6,0.3,8.1c0.8,1.5,1.9,2.8,3.3,3.8c1.5,1.2,3.2,1.8,5.1,2h0.2l0,0.2c1.1,3.7,2.6,7.6,4,11.8l-0.3-0.2l5-1.7l2.3-0.8
		l-0.2,0.3c-1.5-4.1-2.9-8.1-4.2-11.8v-0.2l0.1-0.1c1.5-1.4,2.5-3.2,3.2-5.2c0.5-1.8,0.5-3.7,0-5.5c-1.1-3.4-3.3-5.9-5.8-6.8
		c-1.1-0.4-2.2-0.6-3.4-0.6c-0.9,0-1.7,0.1-2.6,0.3C350.5,88.3,349.8,88.6,349.8,88.6z"/>
</g>
<g id="freepik--Device--inject-2">
	<path class="st6" d="M318.9,377.3l-99.9-0.5c-12-0.1-21.7-9.8-21.6-21.9l1.1-250.4c0-12,9.8-21.7,21.8-21.7c0,0,0,0,0,0l99.9,0.5
		c12,0.1,21.7,9.8,21.7,21.8l-1.1,250.4C340.7,367.7,330.9,377.4,318.9,377.3C318.9,377.3,318.9,377.3,318.9,377.3z"/>
	<path class="st2" d="M320,92h-19.4c-2.7,0-4.8,2.2-4.7,4.9c0,0,0,0,0,0v3.5c0.1,2.7-2.1,4.8-4.7,4.9c0,0,0,0,0,0l-37.7-0.2
		c-2.7-0.1-4.8-2.3-4.7-4.9v-3.5c0.1-2.7-2-4.9-4.7-4.9h-6.8l-16.9-0.1c-8.4,0-15.2,6.7-15.3,15.1l-1,244.4
		c0,8.4,6.7,15.3,15.2,15.3c0,0,0,0,0,0l99.7,0.5c8.4,0,15.3-6.8,15.3-15.2c0,0,0,0,0,0l1-244.4C335.2,98.9,328.4,92.1,320,92z"/>
	<path class="st5" d="M306.6,334.3l-74.1-0.3c-0.8,0-1.4-0.8-1.4-1.9l0.1-19.4c0-1,0.6-1.9,1.4-1.9l74.1,0.3c0.9,0.2,1.5,1,1.4,1.9
		l-0.1,19.4C308,333.5,307.4,334.3,306.6,334.3z"/>
	<text transform="matrix(0.96 0 0 1 252.5898 324.9502)" class="st7 st8 st9">SING UP</text>
	
		<rect x="232" y="153.3" transform="matrix(4.537840e-03 -1 1 4.537840e-03 67.1698 399.779)" class="st5" width="4.7" height="25.7"/>
	
		<rect x="232" y="153.3" transform="matrix(4.537840e-03 -1 1 4.537840e-03 67.1698 399.779)" class="st10" width="4.7" height="25.7"/>
	<path class="st0" d="M322.6,192.8c0.2,0,0.4-0.1,0.6-0.1c0.6-0.2,1-0.7,1-1.4c0-1.6,0-3.9,0-6.9c0-1.5,0-3.2,0-5c0-0.4,0-0.9,0-1.4
		c0.1-0.5,0-0.9-0.3-1.3c-0.3-0.4-0.7-0.6-1.2-0.6h-1.6h-14.5l-83.6-0.3c-0.4,0-0.8,0.2-1.1,0.6c-0.2,0.4-0.3,0.9-0.3,1.3
		c0,1,0,2,0,3c0,2,0,4,0,6c0,1,0,2,0,3c0,0.5,0,0.9,0,1.4c0.1,0.4,0.4,0.7,0.8,0.9c0.2,0.1,0.4,0.1,0.6,0.1h5.1l22.2,0.1l37.6,0.2
		l25.4,0.2l6.9,0.1h1.8c0.4,0,0.6,0,0.6,0h-0.6h-1.8h-6.9h-25.4l-37.6-0.1l-22.2-0.1h-5.1c-0.3,0-0.6,0-0.8-0.1
		c-0.5-0.2-0.9-0.7-1.1-1.2c-0.1-0.3-0.1-0.5-0.1-0.8v-0.7c0-1,0-2,0-3c0-2,0-4,0-6c0-1,0-2,0-3c0-0.3,0-0.5,0-0.8
		c0-0.3,0.2-0.6,0.3-0.8c0.4-0.5,0.9-0.8,1.5-0.8l83.6,0.5l14.5,0.1h1.6c0.6,0,1.1,0.3,1.4,0.7c0.3,0.4,0.4,1,0.3,1.5
		c0,0.5,0,0.9,0,1.4c0,1.8,0,3.5,0,5c0,3-0.1,5.3-0.1,6.9c0,0.6-0.5,1.2-1,1.4C323.1,192.8,322.9,192.8,322.6,192.8z"/>
	<rect x="229.3" y="180.8" class="st5" width="47" height="4.4"/>
	<rect x="229.3" y="180.8" class="st11" width="47" height="4.4"/>
	
		<rect x="231.8" y="196.4" transform="matrix(4.537840e-03 -1 1 4.537840e-03 23.9369 442.4669)" class="st5" width="4.7" height="25.7"/>
	
		<rect x="231.8" y="196.4" transform="matrix(4.537840e-03 -1 1 4.537840e-03 23.9369 442.4669)" class="st10" width="4.7" height="25.7"/>
	<path class="st0" d="M322,235.9c0.2,0,0.4-0.1,0.6-0.1c0.6-0.2,1-0.6,1.3-1.1c0.2-0.4,0.2-0.8,0.2-1.3c0-0.5,0-1,0-1.6
		c0-1.2,0-2.5,0-4v-6.4c0-0.5-0.1-0.9-0.3-1.3c-0.2-0.4-0.6-0.7-1.1-0.9c-0.5-0.1-1-0.1-1.5-0.1h-14.4l-83.4-0.3
		c-0.9,0-1.7,0.7-1.8,1.6c0,0.9,0,2,0,3c0,2,0,4,0,6c0,1,0,2,0,3c0,0.5,0,0.9,0.1,1.4c0.1,0.4,0.4,0.8,0.7,1
		c0.4,0.2,0.8,0.3,1.2,0.3h1.4h2.9l22.1,0.1l37.5,0.2l25.3,0.2l6.9,0.1h1.8L322,235.9l-0.6-0.1h-1.8h-6.9h-25.3l-37.5,0l-22.1-0.1
		h-4.4c-0.5,0-1.1-0.1-1.5-0.4c-0.5-0.3-0.8-0.8-0.9-1.3c-0.1-0.5-0.1-1-0.1-1.5c0-1,0-2,0-3c0-2,0-4,0-6c0-1,0-2,0-3
		c0.2-1.2,1.2-2.1,2.4-2.1l83.3,0.5l14.4,0.1c0.5,0,1.1,0,1.6,0.1c0.5,0.2,1,0.5,1.2,1c0.3,0.4,0.4,1,0.3,1.5c0,0.5,0,0.9,0,1.4
		c0,1.8,0,3.5,0,5s0,2.8,0,4c0,0.6,0,1.1,0,1.6c0,0.4,0,0.9-0.2,1.3c-0.3,0.6-0.8,1-1.4,1.1C322.4,236,322.2,235.9,322,235.9z"/>
	
		<rect x="231.7" y="241.3" transform="matrix(4.537840e-03 -1 1 4.537840e-03 -21.1842 486.9979)" class="st5" width="4.7" height="25.7"/>
	
		<rect x="231.7" y="241.3" transform="matrix(4.537840e-03 -1 1 4.537840e-03 -21.1842 486.9979)" class="st10" width="4.7" height="25.7"/>
	<path class="st0" d="M321.8,280.8c0.2,0,0.4-0.1,0.6-0.1c0.6-0.2,1-0.6,1.3-1.1c0.2-0.4,0.2-0.8,0.2-1.3c0-0.5,0-1,0-1.6
		c0-1.1,0-2.5,0-4v-6.4c0-0.5-0.1-0.9-0.3-1.3c-0.3-0.4-0.6-0.7-1.1-0.8c-0.5-0.1-1-0.1-1.5-0.1h-14.4l-83.4-0.3
		c-0.9,0-1.7,0.7-1.8,1.6c0,1,0,2,0,3c0,2,0,4,0,6c0,1,0,2,0,3c0,0.5,0,0.9,0.1,1.4c0.1,0.4,0.4,0.8,0.7,1c0.4,0.2,0.8,0.4,1.2,0.3
		h4.4l22.1,0.1l37.5,0.2l25.3,0.2l6.9,0.1h1.8C321.7,280.7,321.9,280.7,321.8,280.8c0.1-0.1-0.1-0.1-0.5-0.1h-1.8h-6.9h-25.3
		l-37.5-0.1l-22.1-0.1h-4.4c-0.5,0-1.1-0.1-1.5-0.4c-0.5-0.3-0.8-0.8-0.9-1.3c-0.1-0.5-0.1-1-0.1-1.5c0-1,0-2,0-3c0-2,0-4,0-6
		c0-1,0-2,0-3c0.1-1.2,1.1-2.1,2.3-2.1l83.3,0.5l14.4,0.1c0.5,0,1.1,0,1.6,0.1c0.5,0.2,1,0.5,1.2,1c0.3,0.4,0.4,1,0.3,1.5
		c0,0.5,0,0.9,0,1.4c0,1.8,0,3.5,0,5s0,2.8,0,4c0,0.6,0,1.1,0,1.6c0,0.4,0,0.9-0.2,1.3c-0.3,0.6-0.8,1-1.4,1.1
		C322.3,280.8,322,280.8,321.8,280.8z"/>
	
		<rect x="249.6" y="203.7" transform="matrix(4.537840e-03 -1 1 4.537840e-03 23.3709 477.9873)" class="st5" width="4.4" height="47"/>
	
		<rect x="249.6" y="203.7" transform="matrix(4.537840e-03 -1 1 4.537840e-03 23.3709 477.9873)" class="st11" width="4.4" height="47"/>
	<path class="st5" d="M232.5,272.6c-0.1,1.1-1.1,2-2.2,1.9c-1.1-0.1-2-1.1-1.9-2.2c0.1-1.1,1-1.9,2.1-1.9
		C231.7,270.5,232.6,271.5,232.5,272.6z"/>
	<path class="st5" d="M238.9,272.7c0.1,1.1-0.8,2.1-1.9,2.2c-1.1,0.1-2.1-0.8-2.2-1.9c0-0.1,0-0.2,0-0.3c-0.1-1.1,0.8-2.1,1.9-2.2
		c1.1-0.1,2.1,0.8,2.2,1.9C238.9,272.5,238.9,272.6,238.9,272.7z"/>
	<path class="st5" d="M245.3,272.7c-0.1,1.1-1.1,2-2.2,1.9c-1.1-0.1-2-1.1-1.9-2.2c0.1-1.1,1-1.9,2.1-1.9
		C244.4,270.6,245.3,271.5,245.3,272.7z"/>
	<path class="st5" d="M251.6,272.7c-0.1,1.1-1.1,2-2.2,1.9c-1.1-0.1-2-1.1-1.9-2.2c0.1-1.1,1-1.9,2.1-1.9
		C250.8,270.6,251.7,271.6,251.6,272.7z"/>
	<path class="st5" d="M258,272.8c-0.1,1.1-1.1,2-2.2,1.9c-1.1-0.1-2-1.1-1.9-2.2c0.1-1.1,1-1.9,2.1-1.9
		C257.2,270.6,258,271.6,258,272.8z"/>
	<path class="st5" d="M264.4,272.8c-0.1,1.1-1.1,2-2.2,1.9s-2-1.1-1.9-2.2c0.1-1.1,1-1.9,2.1-1.9
		C263.5,270.6,264.4,271.6,264.4,272.8z"/>
	<path class="st5" d="M270.8,272.8c0.1,1.1-0.8,2.1-1.9,2.2c-1.1,0.1-2.1-0.8-2.2-1.9c0-0.1,0-0.2,0-0.3c-0.1-1.1,0.8-2.1,1.9-2.2
		c1.1-0.1,2.1,0.8,2.2,1.9C270.8,272.6,270.8,272.7,270.8,272.8z"/>
	<path class="st5" d="M277.1,272.8c-0.1,1.1-1.1,2-2.2,1.9s-2-1.1-1.9-2.2c0.1-1.1,1-1.9,2.1-1.9
		C276.2,270.7,277.2,271.7,277.1,272.8z"/>
	<path class="st5" d="M283.5,272.9c-0.1,1.1-1.1,2-2.2,1.9c-1.1-0.1-2-1.1-1.9-2.2c0.1-1.1,1-1.9,2.1-1.9
		C282.6,270.7,283.5,271.7,283.5,272.9z"/>
	<g class="st12">
		<path class="st2" d="M232.5,272.6c-0.1,1.1-1.1,2-2.2,1.9c-1.1-0.1-2-1.1-1.9-2.2c0.1-1.1,1-1.9,2.1-1.9
			C231.7,270.5,232.6,271.5,232.5,272.6z"/>
		<path class="st2" d="M238.9,272.7c0.1,1.1-0.8,2.1-1.9,2.2c-1.1,0.1-2.1-0.8-2.2-1.9c0-0.1,0-0.2,0-0.3c-0.1-1.1,0.8-2.1,1.9-2.2
			c1.1-0.1,2.1,0.8,2.2,1.9C238.9,272.5,238.9,272.6,238.9,272.7z"/>
		<path class="st2" d="M245.3,272.7c-0.1,1.1-1.1,2-2.2,1.9c-1.1-0.1-2-1.1-1.9-2.2c0.1-1.1,1-1.9,2.1-1.9
			C244.4,270.6,245.3,271.5,245.3,272.7z"/>
		<path class="st2" d="M251.6,272.7c-0.1,1.1-1.1,2-2.2,1.9c-1.1-0.1-2-1.1-1.9-2.2c0.1-1.1,1-1.9,2.1-1.9
			C250.8,270.6,251.7,271.6,251.6,272.7z"/>
		<path class="st2" d="M258,272.8c-0.1,1.1-1.1,2-2.2,1.9c-1.1-0.1-2-1.1-1.9-2.2c0.1-1.1,1-1.9,2.1-1.9
			C257.2,270.6,258,271.6,258,272.8z"/>
		<path class="st2" d="M264.4,272.8c-0.1,1.1-1.1,2-2.2,1.9s-2-1.1-1.9-2.2c0.1-1.1,1-1.9,2.1-1.9
			C263.5,270.6,264.4,271.6,264.4,272.8z"/>
		<path class="st2" d="M270.8,272.8c0.1,1.1-0.8,2.1-1.9,2.2c-1.1,0.1-2.1-0.8-2.2-1.9c0-0.1,0-0.2,0-0.3c-0.1-1.1,0.8-2.1,1.9-2.2
			c1.1-0.1,2.1,0.8,2.2,1.9C270.8,272.6,270.8,272.7,270.8,272.8z"/>
		<path class="st2" d="M277.1,272.8c-0.1,1.1-1.1,2-2.2,1.9s-2-1.1-1.9-2.2c0.1-1.1,1-1.9,2.1-1.9
			C276.2,270.7,277.2,271.7,277.1,272.8z"/>
		<path class="st2" d="M283.5,272.9c-0.1,1.1-1.1,2-2.2,1.9c-1.1-0.1-2-1.1-1.9-2.2c0.1-1.1,1-1.9,2.1-1.9
			C282.6,270.7,283.5,271.7,283.5,272.9z"/>
	</g>
	<path class="st5" d="M274.4,128.5c1.4-0.6,2.3-2,2.3-3.6c0.1-2-1.4-3.7-3.4-3.8c-2-0.1-3.7,1.4-3.8,3.4c0,0.1,0,0.3,0,0.4
		c0,1.6,0.9,3,2.3,3.6c-5.6,0.8-5.4,6.9-5.4,6.9l13.2,0.1C279.7,135.5,280,129.3,274.4,128.5z"/>
	<path class="st10" d="M274.4,128.5c1.4-0.6,2.3-2,2.3-3.6c0.1-2-1.4-3.7-3.4-3.8c-2-0.1-3.7,1.4-3.8,3.4c0,0.1,0,0.3,0,0.4
		c0,1.6,0.9,3,2.3,3.6c-5.6,0.8-5.4,6.9-5.4,6.9l13.2,0.1C279.7,135.5,280,129.3,274.4,128.5z"/>
	
		<rect x="269.5" y="118.6" transform="matrix(4.537840e-03 -1 1 4.537840e-03 128.9482 413.8634)" class="st5" width="5.6" height="47.2"/>
	
		<rect x="269.5" y="118.6" transform="matrix(4.537840e-03 -1 1 4.537840e-03 128.9482 413.8634)" class="st11" width="5.6" height="47.2"/>
</g>
<g id="freepik--Character--inject-6">
	<path class="st5" d="M75.3,440.6l-1.3,7.4l1.1,0.2c4.9,1,24.9,4.9,28.3,4.4c3.8-0.5-10.8-6.3-10.8-6.3l0.5-3.1L75.3,440.6z"/>
	<g class="st13">
		<path class="st2" d="M80.4,448.7c0-1.5-0.6-3-1.7-4.1c-1-1.1-2.5-1.8-4-1.9l-0.8,5L80.4,448.7z"/>
	</g>
	<g class="st13">
		<path class="st2" d="M99.7,449.3c0,0,5.1,2.4,4.3,3.1s-21.2-2.4-30-4.6l0.1-0.4l23.7,3.9C97.7,451.4,98.7,449.2,99.7,449.3z"/>
	</g>
	<path class="st4" d="M73.8,447.5c0.1,0,0.2,0.1,0.3,0.1l0.9,0.2l3.2,0.6c2.7,0.5,6.5,1.2,10.7,1.9s8,1.1,10.7,1.5l3.3,0.4l0.9,0.1
		h0.3l-0.3-0.1l-0.9-0.1l-3.2-0.4c-2.8-0.4-6.5-0.9-10.7-1.5s-8-1.3-10.7-1.8l-3.2-0.6l-0.9-0.1L73.8,447.5z"/>
	<path class="st4" d="M97.7,451.7c0.2-0.5,0.5-1,0.8-1.5c0.4-0.4,0.8-0.8,1.3-1.1c-0.6,0.1-1.1,0.4-1.5,0.9
		C98,450.5,97.7,451.1,97.7,451.7z"/>
	<path class="st4" d="M92.9,448.2c0,0,0.3-0.2,0.7-0.6s0.5-0.7,0.5-0.7s-0.3,0.2-0.7,0.6S92.8,448.1,92.9,448.2z"/>
	<path class="st4" d="M91.5,447.2c0,0,0.3-0.1,0.7-0.3c0.4-0.2,0.6-0.5,0.6-0.5s-0.3,0.1-0.7,0.3S91.5,447.1,91.5,447.2z"/>
	<path class="st4" d="M90.9,445.4c-2.3,0.2-4.1,2.2-3.9,4.5s2.2,4.1,4.5,3.9c2.3-0.2,4.1-2.2,3.9-4.5c-0.1-1.9-1.6-3.5-3.5-3.9
		C91.6,445.3,91.2,445.3,90.9,445.4z"/>
	<path class="st4" d="M90.8,444.1c0.3,0.3,0.6,0.4,1,0.5c0.4,0.1,0.7,0.1,1.1,0c-0.3-0.1-0.7-0.2-1-0.2
		C91.5,444.3,91.1,444.2,90.8,444.1z"/>
	<path class="st4" d="M93.7,446.7c0.4,0.1,0.8,0.2,1.2,0.2c0.4,0,0.8,0,1.3-0.1c0.3,0,0.5-0.1,0.7-0.2c0.1-0.1,0.3-0.2,0.3-0.3
		c0.1-0.2,0-0.4-0.1-0.5c-0.8-0.6-2-0.5-2.7,0.2c-0.2,0.2-0.4,0.4-0.5,0.7c-0.1,0.2-0.1,0.3-0.1,0.3c0.2-0.3,0.4-0.6,0.7-0.9
		c0.3-0.3,0.7-0.4,1.1-0.5c0.5-0.1,1,0,1.3,0.3c0.2,0.2,0,0.4-0.2,0.5c-0.2,0.1-0.4,0.1-0.7,0.2c-0.4,0.1-0.8,0.1-1.2,0.1
		C94.2,446.7,93.7,446.7,93.7,446.7z"/>
	<path class="st4" d="M94,446.8c0,0,0.2-0.2,0.3-0.8c0-0.3-0.1-0.6-0.2-0.9c-0.1-0.4-0.5-0.7-0.9-0.7c-0.2,0-0.4,0.2-0.4,0.5
		c0,0,0,0,0,0c0,0.2,0,0.4,0.1,0.5c0.1,0.3,0.3,0.5,0.4,0.8C93.6,446.6,93.9,446.8,94,446.8c-0.1-0.1-0.3-0.3-0.6-0.7
		c-0.1-0.2-0.3-0.5-0.4-0.8c-0.1-0.3-0.2-0.7,0.1-0.7s0.5,0.4,0.7,0.6c0.1,0.2,0.2,0.5,0.2,0.8C94.1,446.3,94.1,446.6,94,446.8z"/>
	<path class="st4" d="M74.9,442.6c0,0,0.5,0,1.3,0.2c1,0.3,2,0.9,2.7,1.6c0.7,0.8,1.2,1.8,1.4,2.8c0.2,0.8,0.1,1.3,0.1,1.3
		c0-0.1,0.1-0.2,0.1-0.4c0-0.3,0-0.7,0-1c-0.2-1.1-0.6-2.1-1.4-2.9c-0.8-0.8-1.7-1.4-2.8-1.6c-0.3-0.1-0.7-0.1-1-0.1
		C75.1,442.6,75,442.6,74.9,442.6z"/>
	<path class="st4" d="M83,447.4c0.8,0.3,1.7,0.5,2.6,0.7c0.9,0.2,1.8,0.2,2.6,0.2c0-0.1-1.2-0.2-2.6-0.4S83,447.3,83,447.4z"/>
	<path class="st4" d="M79.5,446.8c-0.1,0,0.1,0.3,0.1,0.5s0.1,0.5,0.2,0.5s0.1-0.3,0-0.6S79.5,446.8,79.5,446.8z"/>
	<path class="st4" d="M78.4,445c0,0,0,0.2,0.2,0.5c0.2,0.2,0.3,0.4,0.4,0.3c0.1,0,0-0.2-0.2-0.5C78.6,445.1,78.5,444.9,78.4,445z"/>
	<path class="st4" d="M76.7,443.9c0,0.1,0.2,0.1,0.5,0.2s0.4,0.3,0.5,0.3c0,0,0-0.3-0.4-0.5S76.7,443.9,76.7,443.9z"/>
	<path class="st4" d="M75.3,443.4c0,0,0.1,0.2,0.2,0.2s0.3,0.1,0.3,0c0-0.1-0.1-0.2-0.2-0.2S75.4,443.3,75.3,443.4z"/>
	<path class="st5" d="M169.1,446.8l0.7,7.4l1.1,0c5-0.3,25.3-1.8,28.5-3.1c3.6-1.5-12-3.3-12-3.3l-0.4-3.1L169.1,446.8z"/>
	<g class="st13">
		<path class="st2" d="M176.2,453.4c-0.4-1.5-1.4-2.8-2.7-3.6c-1.3-0.8-2.8-1.1-4.3-0.8l0.6,5L176.2,453.4z"/>
	</g>
	<g class="st13">
		<path class="st2" d="M194.9,448.9c0,0,5.5,0.9,4.9,1.9s-21,3.2-30.1,3.4v-0.4l23.9-2.4C193.7,451.4,193.9,449.1,194.9,448.9z"/>
	</g>
	<path class="st4" d="M169.4,453.9h0.3l0.9,0l3.3-0.2c2.8-0.2,6.6-0.5,10.8-1s8-1,10.7-1.4l3.2-0.5l0.9-0.1c0.1,0,0.2,0,0.3-0.1
		h-0.3l-0.9,0.2l-3.3,0.4c-2.7,0.4-6.5,0.8-10.7,1.3s-8,0.8-10.8,1.1l-3.2,0.2l-0.9,0.1L169.4,453.9z"/>
	<path class="st4" d="M193.7,451.7c0.1-0.6,0.2-1.1,0.4-1.6c0.3-0.5,0.6-1,1-1.4c-0.5,0.3-0.9,0.7-1.2,1.3
		C193.6,450.5,193.5,451.1,193.7,451.7z"/>
	<path class="st4" d="M188,449.6c0.1,0,0.3-0.3,0.5-0.8c0.2-0.3,0.3-0.5,0.3-0.8c0,0-0.3,0.3-0.5,0.8S188,449.6,188,449.6z"/>
	<path class="st4" d="M186.5,449c0.1,0,0.3-0.2,0.6-0.5s0.5-0.6,0.4-0.6s-0.3,0.2-0.6,0.5S186.5,449,186.5,449z"/>
	<path class="st4" d="M185.4,447.4c0.3,0.1,0.6,0.1,0.9,0c0.3,0,0.6-0.1,0.9-0.2c-0.3-0.1-0.7-0.1-1,0
		C186,447.2,185.7,447.3,185.4,447.4z"/>
	<path class="st4" d="M185,446.3c0.3,0.2,0.7,0.2,1.1,0.2c0.4,0,0.7-0.1,1.1-0.3c-0.4,0-0.7,0-1.1,0
		C185.7,446.2,185.3,446.2,185,446.3z"/>
	<path class="st4" d="M188.5,448c0.4,0,0.8,0,1.1-0.1c0.4-0.1,0.8-0.2,1.2-0.4c0.2-0.1,0.5-0.2,0.7-0.4c0.1-0.1,0.2-0.2,0.2-0.4
		c0-0.2-0.1-0.4-0.2-0.5c-1-0.3-2,0-2.5,0.9c-0.2,0.2-0.3,0.5-0.3,0.8c0,0.1,0,0.2,0,0.3c0.1-0.4,0.2-0.7,0.4-1
		c0.2-0.3,0.5-0.6,0.9-0.8c0.4-0.2,0.9-0.2,1.4-0.1c0.2,0.1,0.1,0.3,0,0.5c-0.2,0.1-0.4,0.3-0.6,0.4c-0.4,0.2-0.8,0.3-1.2,0.4
		C188.9,447.9,188.5,447.9,188.5,448z"/>
	<path class="st4" d="M188.8,448c0.1-0.3,0.1-0.6,0-0.8c-0.1-0.3-0.2-0.6-0.4-0.8c-0.2-0.3-0.6-0.5-1-0.5c-0.2,0.1-0.4,0.3-0.3,0.6
		c0.1,0.2,0.1,0.3,0.3,0.5c0.2,0.2,0.4,0.5,0.6,0.6c0.2,0.2,0.4,0.3,0.7,0.4c0,0-0.2-0.2-0.6-0.5c-0.2-0.2-0.4-0.4-0.6-0.6
		c-0.2-0.2-0.3-0.6-0.1-0.7s0.6,0.2,0.8,0.4c0.2,0.2,0.3,0.4,0.4,0.7C188.7,447.5,188.8,447.7,188.8,448z"/>
	<path class="st4" d="M169.2,448.9c0,0,0.5-0.1,1.3-0.1c2.2,0,4.2,1.2,5.1,3.2c0.4,0.7,0.4,1.3,0.5,1.2s0-0.1,0-0.4
		c-0.1-0.3-0.2-0.6-0.3-0.9c-0.9-2.1-3-3.4-5.2-3.3c-0.3,0-0.7,0-1,0.1C169.5,448.8,169.4,448.9,169.2,448.9z"/>
	<path class="st4" d="M178.3,451.4c0.9,0.1,1.8,0.1,2.6,0c0.9-0.1,1.8-0.2,2.6-0.5c0-0.1-1.2,0.1-2.6,0.3S178.3,451.3,178.3,451.4z"
		/>
	<path class="st4" d="M174.8,451.8c0,0,0.1,0.2,0.3,0.5s0.2,0.5,0.3,0.5s0.1-0.3-0.1-0.6S174.8,451.7,174.8,451.8z"/>
	<path class="st4" d="M173.2,450.3c0,0,0.1,0.2,0.3,0.4s0.4,0.3,0.4,0.2s-0.1-0.2-0.3-0.4S173.3,450.2,173.2,450.3z"/>
	<path class="st4" d="M171.3,449.7c0,0.1,0.2,0,0.5,0.1s0.5,0.2,0.5,0.1s-0.1-0.3-0.5-0.4S171.2,449.7,171.3,449.7z"/>
	<path class="st4" d="M169.9,449.5c0,0.1,0.1,0.1,0.2,0.2s0.3,0,0.3,0s-0.1-0.1-0.2-0.2S169.9,449.5,169.9,449.5z"/>
	<path class="st4" d="M174.3,164.7c-1.4-7.6-9.9-11.9-13.2-19c-1.3-2.7-1.8-5.8-3.2-8.5c-3.3-5.8-10.4-8.4-16.7-6.1l-0.5,0.8
		c3.4,7.2,6.8,12.1,10.2,19.3c1.3,2.5,2.2,5.1,2.7,7.9c0.3,2.8-0.4,5.8-2.6,7.6c-1.7,1.4-4,1.9-5.9,3.1c-2.8,2.1-4.2,5.5-3.8,8.9
		c0.5,3.4,2.1,6.5,4.4,9c2.2,2.4,5.7,4.5,8.6,3c1.5-0.8,2.4-2.2,3.5-3.5c2.2-2.6,5.3-4.2,8-6.2C171.1,177.3,175.5,171.1,174.3,164.7
		z"/>
	<path class="st14" d="M247.8,200.3c-1.9,1.8-12.4,10.5-12.4,10.5l-10.4-9.4c0.3-0.8,2.8-5.1,3.1-6.2c0.3-0.9,0.3-1.9,0.3-2.9
		c0-1.2-0.3-2.4-0.6-3.6c-0.5-1,0.6-2.1,1.4-1.6s2.2,3.3,2.2,6.9s14-4.6,16-2.6L247.8,200.3z"/>
	<path class="st5" d="M158.7,186.2l34.4,41.2l31.6-28.6l13.8,13.4c0,0-39.6,43.6-45.7,43.3s-26.6-13.9-26.6-13.9L158.7,186.2z"/>
	<path class="st4" d="M236.7,180.1c-0.3-0.1-0.6,0.1-0.7,0.3l-9.4,23.6c-0.2,0.4,0,0.9,0.4,1.1l11.1,5.3c0.4,0.2,1,0,1.2-0.4
		c0,0,0,0,0,0l10.5-24.4c0.2-0.5,0-1-0.5-1.2c0,0,0,0-0.1,0L236.7,180.1z"/>
	<polygon class="st15" points="236.4,181.8 227.8,202.8 239.5,208.1 248.3,185.8 	"/>
	<path class="st4" d="M233.1,218.4c-0.9-0.5-1.7-1.1-2.4-1.7c-1.4-1.1-3.4-2.8-5.4-4.8s-3.7-3.9-4.9-5.3c-0.7-0.7-1.3-1.5-1.8-2.4
		c0.7,0.7,1.4,1.4,2.1,2.1c1.2,1.4,3,3.2,5,5.2s3.9,3.7,5.3,4.9C231.7,217,232.4,217.6,233.1,218.4z"/>
	<path class="st4" d="M223.2,202.8c0.1,0.1-0.4,0.4-0.3,1.1c0,0.4,0.2,0.8,0.5,1c0.6,0.4,1.4,0.2,1.8-0.4c0.1-0.2,0.2-0.5,0.2-0.7
		c-0.1-0.4-0.3-0.8-0.6-1c-0.3-0.2-0.7-0.3-1.1-0.3c0,0,0.1-0.1,0.3-0.2c0.3-0.1,0.7,0,1,0.1c0.5,0.2,0.8,0.7,0.9,1.2
		c0.1,1-0.6,1.8-1.6,1.9c-0.4,0-0.8-0.1-1.2-0.3c-0.4-0.3-0.6-0.9-0.6-1.4c0-0.3,0.1-0.7,0.4-0.9
		C223.1,202.8,223.2,202.8,223.2,202.8z"/>
	<path class="st4" d="M191.7,239.4c-0.3-0.6-0.4-1.2-0.5-1.8c-0.5-3-0.1-6,1-8.8c0.2-0.6,0.5-1.1,0.9-1.6c-0.7,2-1.2,4-1.5,6
		C191.5,235.2,191.5,237.3,191.7,239.4z"/>
	<path class="st4" d="M196.7,239.1c-0.5-0.4-0.8-1-1.1-1.5c-1.5-2.7-2.4-5.7-2.5-8.8c-0.1-0.6,0-1.3,0.1-1.9
		c0.2,2.1,0.6,4.2,1.1,6.3C194.9,235.2,195.7,237.2,196.7,239.1z"/>
	<polygon class="st16" points="236.6,185.7 231,199.8 239.5,203.3 245.4,188.9 	"/>
	<path class="st5" d="M234,197.5l5,2.1c0.4,0.2,0.5,0.6,0.4,1l-0.1,0.2c-0.2,0.4-0.6,0.5-1,0.4l-5-2.1c-0.4-0.2-0.5-0.6-0.4-1
		l0.1-0.2C233.2,197.5,233.6,197.4,234,197.5z"/>
	
		<rect x="239.8" y="186.3" transform="matrix(0.3523 -0.9359 0.9359 0.3523 -21.8705 347.6878)" class="st6" width="1" height="6.8"/>
	
		<rect x="237.9" y="189.4" transform="matrix(0.3523 -0.9359 0.9359 0.3523 -26.0371 348.6856)" class="st0" width="1.9" height="7.5"/>
	
		<rect x="236.8" y="192.3" transform="matrix(0.3523 -0.9359 0.9359 0.3523 -29.4964 349.4777)" class="st0" width="1.9" height="7.5"/>
	<path class="st14" d="M247.4,191.4c-1.6,0.3-3.6,0.4-5.2,0.7c-0.5,0-0.9,0.2-1.3,0.4c-0.4,0.3-0.5,0.8-0.3,1.2
		c0.2,0.4,0.9,0.5,1.4,0.5l3.6-0.1c-1.5,0.1-3,0.3-4.5,0.8c-0.7,0.2-1.4,0.7-1.4,1.4c0.1,0.6,0.6,1.1,1.2,1.2c0.6,0,1.2,0,1.9,0
		c0,0,2.4,0,2.5,0.4c-1.5,0-3.5,0.3-5,0.4c-0.4,0-0.6,0.6-0.7,1c-0.1,0.4,0.1,0.8,0.4,1.1c0.2,0.1,0.4,0.1,0.6,0.1l5.9-0.2"/>
	<path class="st5" d="M146.5,183.7c0,0,7.1-0.8,12.2,2.5c4.5,3,20.4,48.5,19.8,62.1s1.1,37.4,3.9,47.2s4.9,95-17,135.6l-40.8-5.7
		l12.7-109.4l-1.3-99.3L146.5,183.7z"/>
	<g class="st17">
		<path d="M144.1,183.7c0,0,7.2-0.8,12.2,2.5c4.5,3,20.4,48.5,19.8,62.1s1.1,37.4,3.9,47.2s4.9,95-17,135.6l-37.3-5.7l9.2-109.4
			l-1.4-99.3L144.1,183.7z"/>
	</g>
	<path class="st6" d="M129.2,181.6c0,0-22.4-2.4-16.4,29.6l5.8,33.7l36.6,22.1c4.9,1.3,0.7-23,8.2-34.3c2.8-4.2,3-7.4,2.8-9.3
		c0.7-7.4-5.2-11.9-6-19.4c-0.9-10.8-0.9-16.7-5.6-17.9L129.2,181.6"/>
	<path class="st4" d="M160.5,201.6c-0.4,1.5-0.4,3.2,0,4.7c0.4,1.7,1.1,3.3,2,4.8c1.1,1.8,2.1,3.8,2.9,5.8c1.3,3.8,1.4,7.8,0.1,11.6
		c-0.4,1.1-0.8,2.2-1.4,3.2c-0.2,0.4-0.5,0.8-0.7,1.1c0.7-1.4,1.3-2.9,1.8-4.4c1.1-3.7,1-7.7-0.3-11.3c-0.8-2-1.7-3.9-2.8-5.7
		c-0.9-1.5-1.5-3.2-1.9-4.9c-0.3-1.2-0.3-2.4-0.1-3.6c0.1-0.3,0.2-0.6,0.3-0.9C160.4,201.7,160.5,201.6,160.5,201.6z"/>
	<path class="st14" d="M149.3,183.9c-0.5-5.5-1-11.3-1-11.3s7-1.9,7.5-11.3c0.5-9-2.2-24.6-2.2-24.6v-0.8c-10.6-3.2-23.2-3-29.7,5.9
		l0,0l5,44.7c0.6,5.2,5.5,8.8,11.1,8.2l0,0C145.7,194,149.8,189.2,149.3,183.9z"/>
	<path class="st4" d="M153.7,148.1c0.1,0.6-0.4,1.2-1,1.3c-0.6,0.1-1.2-0.3-1.3-0.9c0,0,0,0,0,0c-0.1-0.6,0.4-1.2,1-1.3
		C152.9,147,153.5,147.4,153.7,148.1C153.7,148.1,153.7,148.1,153.7,148.1z"/>
	<path class="st4" d="M153.7,146.8c-0.1,0.2-1.1-0.4-2.4-0.3s-2.1,0.9-2.3,0.7c-0.2-0.1,0-0.4,0.4-0.7c0.5-0.4,1.2-0.7,1.8-0.8
		c0.7-0.1,1.3,0.1,1.9,0.4C153.5,146.4,153.7,146.7,153.7,146.8z"/>
	<path class="st4" d="M140.3,149.8c0.1,0.6-0.4,1.2-1,1.3c-0.6,0.1-1.2-0.3-1.3-0.9c0,0,0,0,0-0.1c-0.1-0.6,0.4-1.2,1-1.3
		C139.6,148.7,140.2,149.1,140.3,149.8C140.3,149.8,140.3,149.8,140.3,149.8z"/>
	<path class="st4" d="M140.3,148.6c-0.1,0.2-1.1-0.4-2.4-0.3s-2.1,0.9-2.3,0.7c-0.2-0.1,0.1-0.4,0.4-0.7c0.5-0.4,1.2-0.7,1.8-0.8
		c0.7-0.1,1.3,0.1,1.9,0.4C140.2,148.2,140.4,148.5,140.3,148.6z"/>
	<path class="st4" d="M145.9,157.6c0.6-0.3,1.3-0.5,2-0.6c0.3-0.1,0.6-0.2,0.6-0.4c0-0.3-0.1-0.7-0.3-0.9l-1.2-2.4
		c-1.1-2-2-4.1-2.8-6.3c1.3,1.9,2.4,3.9,3.3,6.1l1.2,2.4c0.2,0.4,0.4,0.8,0.3,1.3c-0.1,0.2-0.3,0.4-0.5,0.5
		c-0.2,0.1-0.4,0.1-0.6,0.1C147.3,157.5,146.6,157.6,145.9,157.6z"/>
	<path class="st18" d="M148.3,172.6c-4.4,0.5-8.8-0.2-12.7-2.1c0,0,3.6,6.1,12.8,4.3L148.3,172.6z"/>
	<path class="st5" d="M145.7,160.7c-0.6-0.6-1.4-0.8-2.2-0.6c-0.6,0.1-1.1,0.4-1.4,0.9c-0.3,0.5-0.3,1.1,0,1.5
		c0.5,0.4,1.1,0.5,1.7,0.3c0.6-0.3,1.1-0.7,1.5-1.1c0.1-0.1,0.2-0.3,0.3-0.4C145.8,161.1,145.8,160.9,145.7,160.7"/>
	<path class="st4" d="M142.2,158.8c0.2,0,0.4,1.4,1.6,2.2s2.8,0.6,2.8,0.8s-0.3,0.3-0.9,0.4c-0.8,0.1-1.6-0.1-2.3-0.6
		c-0.7-0.4-1.1-1.1-1.3-1.9C142,159.2,142.1,158.8,142.2,158.8z"/>
	<path class="st4" d="M105.4,309.9l-14.2,58.6c0,0-16.9,70.1-17.5,72l-0.5,2.2l23.9,1.8l41.4-130.1L105.4,309.9z"/>
	<path class="st4" d="M148.3,351c3.9,18.7,18,97,18,97l24.2-2.5l-13.8-99.9c-0.2-2.6-0.7-5.2-1.6-7.7l-22.6-67.9L110,243
		c-0.4,0-6.9,17.5-6,29.6c0.5,5.4,2.4,10.6,5.5,15.1c2.7,4,6.5,9.5,7.3,10.7C118.1,300.5,148.3,351,148.3,351z"/>
	<path class="st5" d="M99.9,266.5c-1.2,4.2-2.1,8.5-2.9,12.8c-2.7,15.7-9.6,53.9-14.1,64c-5.7,12.8-14.9,61.1-12.1,70
		c2.8,8.9,64.7,17.8,64.7,17.8s3.6-58,7.1-72.5s11-46.6,12.1-65.4s0.7-51.6-5.3-71.8c-6-20.3-19.9-41.6-19.9-41.6s-11.9,3.3-15.9,8
		c0,0-4.9,6.1-5,11.8s-2.7,33.2-4.5,49.1C103.4,253.3,101.4,261.1,99.9,266.5z"/>
	<path class="st4" d="M154.8,292.2c0-0.1,0-0.2,0-0.3c0-0.2,0-0.5,0-0.9c0-0.8-0.1-1.9-0.2-3.3c-0.2-4-0.5-8-1.1-12
		c-0.4-2.7-1.2-5.4-2.2-8c-1.2-2.9-2.8-5.7-4.8-8.1c-2.1-2.6-4.5-5.2-6.8-8c-1.2-1.4-2.3-2.9-3.4-4.5c-1.1-1.6-1.9-3.3-2.6-5.1
		c-1.5-3.6-1.7-7.5-0.6-11.2c0.7-1.7,1.6-3.3,2.6-4.7c0.4-0.7,0.8-1.5,1-2.3c0.1-0.4,0.1-0.8,0.1-1.2c0-0.4-0.2-0.8-0.4-1.1
		c-0.5-0.6-1.1-1.1-1.9-1.3c-0.8-0.3-1.5-0.5-2.3-0.8c-0.8-0.3-1.4-0.9-1.9-1.6c-0.4-0.7-0.7-1.4-0.8-2.2c-0.2-1.5-0.1-2.9,0.1-4.4
		c0.2-1.4,0.4-2.7,0.6-3.9c0.7-5,1.3-9.1,1.8-11.9c0.2-1.4,0.4-2.5,0.5-3.2l0.1-0.8c0-0.1,0-0.2,0.1-0.3c0,0.1,0,0.2,0,0.3
		c0,0.2,0,0.5-0.1,0.9c-0.1,0.8-0.2,1.9-0.4,3.2c-0.4,2.9-0.9,6.9-1.6,11.9c-0.2,1.3-0.3,2.6-0.5,3.9c-0.2,1.4-0.3,2.8-0.1,4.2
		c0.1,0.7,0.4,1.4,0.8,2c0.4,0.6,1,1.1,1.7,1.4c0.7,0.3,1.5,0.5,2.3,0.8c0.8,0.3,1.6,0.8,2.1,1.5c0.3,0.4,0.4,0.8,0.5,1.3
		c0,0.5,0,0.9-0.1,1.4c-0.2,0.9-0.6,1.7-1.1,2.4c-1,1.4-1.9,3-2.6,4.7c-1,3.6-0.8,7.4,0.6,10.9c1.4,3.5,3.4,6.7,5.9,9.5
		c2.3,2.8,4.8,5.4,6.8,8c2,2.5,3.6,5.4,4.8,8.4c1,2.6,1.7,5.3,2.1,8.1c0.6,4,0.9,8,1,12c0,1.4,0,2.5,0.1,3.3v0.9
		C154.8,292.1,154.8,292.2,154.8,292.2z"/>
	<path class="st4" d="M146.9,300.1c0,0,0.1-0.2,0.3-0.3c0.4-0.2,0.8-0.3,1.2-0.2c0.6,0.1,1.2,0.6,1.3,1.2c0.3,0.9-0.2,1.9-1.1,2.2
		c-0.6,0.2-1.3,0-1.8-0.4c-0.5-0.4-0.7-1.1-0.4-1.7c0.1-0.4,0.4-0.7,0.7-0.9c0.2-0.1,0.4-0.1,0.4-0.1c-0.4,0.3-0.7,0.7-0.8,1.1
		c-0.1,0.5,0,1,0.4,1.3c0.5,0.5,1.4,0.5,1.9-0.1c0.3-0.3,0.4-0.8,0.3-1.3c-0.1-0.5-0.5-0.8-0.9-0.9
		C147.8,299.9,147.3,299.9,146.9,300.1z"/>
	<path class="st4" d="M140.3,334.6c0,0,0.1-0.2,0.3-0.3c0.3-0.2,0.8-0.3,1.2-0.2c0.6,0.1,1.2,0.6,1.3,1.2c0.3,0.9-0.2,1.9-1.1,2.2
		c-0.6,0.2-1.3,0-1.8-0.4c-0.7-0.6-0.7-1.7,0-2.4c0.1-0.1,0.2-0.2,0.3-0.3c0.2-0.1,0.4-0.1,0.4-0.1c-0.4,0.3-0.7,0.7-0.8,1.1
		c-0.1,0.5,0,1,0.4,1.3c0.4,0.4,1.1,0.4,1.6,0.2c0.5-0.3,0.7-0.9,0.6-1.5c-0.1-0.5-0.5-0.9-1-0.9
		C141.2,334.4,140.7,334.4,140.3,334.6z"/>
	<path class="st4" d="M140.1,291.5c0,0.1,0,0.2,0,0.3c0,0.3,0,0.6-0.1,1c-0.1,0.9-0.2,2.1-0.4,3.8c-0.4,3.3-1,8-1.8,13.8
		c-0.4,2.9-1,6.1-1.7,9.5c-0.3,1.8-0.8,3.5-1.4,5.2c-0.1,0.2-0.2,0.4-0.3,0.7c-0.1,0.2-0.3,0.4-0.5,0.6c-0.4,0.3-0.8,0.6-1.2,0.8
		c-0.9,0.4-1.8,0.7-2.8,1c-4,0.8-8.1,1.3-12.2,1.4c-4.4,0.2-8.8,0.1-13.1-0.1l-0.6-0.1c-0.3,0-0.5-0.2-0.6-0.4
		c-0.2-0.4-0.3-0.7-0.3-1.1c-0.1-0.7-0.1-1.5-0.1-2.2c0-1.4,0.2-2.9,0.3-4.2c0.3-2.8,0.8-5.5,1.2-8.1c0.9-5.3,1.9-10.2,2.9-14.7
		v-0.2h0.2c8-0.7,15.9-2.1,23.7-4.1c2.8-0.7,5-1.4,6.5-1.9l1.7-0.5C139.7,291.6,139.9,291.5,140.1,291.5l-0.1,0.1l-0.4,0.2
		c-0.4,0.1-0.9,0.4-1.7,0.6c-1.5,0.5-3.7,1.2-6.5,2c-7.8,2.1-15.7,3.6-23.7,4.3l0.2-0.2c-1,4.5-1.9,9.5-2.8,14.7
		c-0.4,2.6-0.9,5.3-1.2,8.1c-0.2,1.4-0.3,2.8-0.3,4.2c0,0.7,0,1.4,0.1,2.1c0,0.3,0.1,0.6,0.2,0.9c0.1,0.1,0.1,0.2,0.2,0.2l0.5,0.1
		c4.3,0.3,8.7,0.3,13.1,0.2c4-0.1,8.1-0.5,12-1.3c0.9-0.2,1.8-0.5,2.7-0.9c0.8-0.3,1.5-1,1.8-1.8c0.6-1.7,1.1-3.4,1.4-5.1
		c0.7-3.4,1.3-6.5,1.7-9.5c0.9-5.8,1.6-10.5,2-13.8c0.2-1.6,0.4-2.9,0.5-3.8c0.1-0.4,0.1-0.7,0.1-1
		C140,291.5,140.1,291.5,140.1,291.5z"/>
	<path class="st4" d="M139.4,298.8c-0.4,0.3-0.8,0.5-1.2,0.6c-0.8,0.4-1.9,0.9-3.4,1.4c-7.6,2.8-15.6,4.1-23.7,3.9
		c-1.6,0-2.8-0.1-3.7-0.2c-0.4,0-0.9-0.1-1.3-0.2c0.4-0.1,0.9-0.1,1.3,0c0.9,0,2.1,0.1,3.6,0.1c8,0,16-1.3,23.6-3.9
		c1.5-0.5,2.6-0.9,3.4-1.2C138.6,299,139,298.9,139.4,298.8z"/>
	<path class="st6" d="M83.3,270.6l0.1-0.5c0.1-0.3,0.2-0.8,0.3-1.4c0.3-1.2,0.7-3,1.2-5.3c1.1-4.6,2.8-11.1,4.9-19.2l3.6-13.2
		c1.3-4.8,2.7-9.9,4.3-15.2c1.7-5.6,3.7-11,6.2-16.3c1.3-2.8,2.8-5.5,4.4-8.1c0.8-1.4,1.7-2.6,2.8-3.9c1-1.2,2.3-2.3,3.8-3
		c1.5-0.7,3.2-0.9,4.8-0.4c1.5,0.5,2.9,1.5,3.9,2.8c2,2.6,2.5,5.8,2.8,8.8c0.5,6,1,11.8,1.5,17.4c0.9,11.1,1.8,21,2.4,29.4
		s1.2,15.1,1.6,19.8c0.2,2.3,0.3,4.1,0.4,5.4c0,0.6,0.1,1.1,0.1,1.4c0,0.2,0,0.3,0,0.5c0,0,0-0.2-0.1-0.5c-0.1-0.3-0.1-0.8-0.1-1.4
		l-0.5-5.4c-0.4-4.7-1-11.4-1.8-19.8c-0.8-8.3-1.6-18.3-2.6-29.4c-0.5-5.5-1-11.3-1.5-17.3c-0.3-2.9-0.8-6.1-2.7-8.5
		c-0.9-1.2-2.2-2.1-3.6-2.6c-1.5-0.5-3.1-0.3-4.4,0.4c-1.4,0.7-2.6,1.7-3.6,2.9c-1,1.2-1.9,2.4-2.7,3.8c-1.6,2.6-3.1,5.2-4.4,8
		c-2.4,5.3-4.5,10.7-6.2,16.2c-1.6,5.3-3,10.4-4.3,15.1s-2.5,9.2-3.7,13.2c-2.2,8.1-3.9,14.7-5.1,19.2c-0.6,2.3-1,4-1.3,5.2
		c-0.2,0.6-0.3,1-0.4,1.4C83.3,270.4,83.3,270.6,83.3,270.6z"/>
	<path class="st4" d="M80.8,267.1c-0.4,1.6-7.7,42.9-7.7,42.9l54.1,1.8l7.5-42.9L80.8,267.1z"/>
	<path class="st6" d="M134.2,269.7c-0.2,0.1-0.3,0.3-0.5,0.4c-0.3,0.2-0.8,0.5-1.5,1c-1.3,0.8-3.1,2-5.5,3.3
		c-2.4,1.3-5.2,2.9-8.5,4.4c-1.6,0.8-3.3,1.6-5.2,2.2c-1.9,0.6-4,0.9-6,0.9c-4-0.2-7.9-1.2-11.4-3c-2.9-1.4-5.5-3.2-8-5.2
		c-2.1-1.7-3.7-3.2-4.8-4.3c-0.5-0.5-1-1-1.2-1.2c-0.1-0.1-0.3-0.3-0.4-0.5c0.2,0.1,0.3,0.2,0.5,0.4c0.3,0.3,0.8,0.7,1.3,1.2
		c1.1,1,2.8,2.5,4.9,4.1c2.5,2,5.2,3.7,8,5.1c3.5,1.7,7.3,2.7,11.1,2.8c2,0.1,4-0.2,5.9-0.8c1.8-0.6,3.5-1.5,5.2-2.2
		c3.2-1.5,6.1-3,8.5-4.3c2.4-1.3,4.3-2.4,5.6-3.2l1.5-0.9C133.8,269.9,134,269.8,134.2,269.7z"/>
	<path class="st6" d="M130.9,271.5c0.1,0-1.3,9-3.2,20.1c-1.9,11.1-3.6,20-3.8,20s1.3-9,3.2-20.1S130.7,271.5,130.9,271.5z"/>
	<path class="st6" d="M105.4,280.3c-0.2,1.3-0.3,2.7-0.4,4c-0.1,0.4-0.1,0.8,0,1.3c0.1,0.4,0.4,0.8,0.8,0.9c0.5,0.1,1-0.2,1.2-0.7
		c0.2-0.5,0.3-1,0.3-1.5c0.1-1.4,0.2-2.9,0.2-4.3h-1.8"/>
	<path class="st5" d="M116.6,185.3c4.4-1.5,8.1,4.2,8.6,8.8c0.5,5.3,0.6,10.7,0.3,16c-0.8,15.8-7.9,30.8-7.9,30.8l45.2,6.8
		l-1.7,17.4l-57.2-6.1c-7.4-0.8-12.8-7.5-12-14.9c0.1-0.9,0.3-1.7,0.5-2.5c5.1-16.7,13.5-40.6,15.3-44.6
		C110.2,191.6,110.5,187.3,116.6,185.3z"/>
	<path class="st4" d="M101.7,258.5h0.3l0.9,0.1l3.3,0.5c2.9,0.4,7.1,1,12.4,1.6c10.6,1.2,25.4,2.7,42.5,4l-0.3,0.2
		c0.5-5.5,1.1-11.4,1.7-17.4l0,0l0.2,0.3l-45.2-6.8h-0.2l0.1-0.2c2.9-9.1,5.2-16.6,6.5-21.9c0.7-2.6,1.2-4.7,1.4-6.1l0.3-1.6
		c0.1-0.4,0.1-0.6,0.1-0.6s0,0.2-0.1,0.6s-0.1,0.9-0.3,1.6c-0.2,1.4-0.7,3.5-1.3,6.2c-1.3,5.3-3.5,12.9-6.4,22l-0.2-0.3l45.3,6.7
		h0.2v0.2l0,0c-0.6,6-1.1,11.8-1.7,17.4v0.2h-0.2c-17.1-1.3-31.9-2.9-42.5-4.2c-5.3-0.7-9.5-1.3-12.4-1.8l-3.4-0.6l-0.8-0.2
		L101.7,258.5z"/>
	<path class="st4" d="M152.2,264.3c0-3,0.2-6,0.6-9c0.2-3,0.6-6,1.1-9c0,3-0.2,6-0.6,9C153.1,258.4,152.7,261.4,152.2,264.3z"/>
	<path class="st4" d="M157.9,249.3c0,0,0.1-0.1,0.3,0c0.3,0.1,0.6,0.3,0.8,0.5c0.3,0.4,0.3,1,0.1,1.4c-0.4,0.7-1.3,1-2,0.6
		c-0.4-0.2-0.7-0.6-0.7-1.1c-0.1-0.5,0.1-1,0.5-1.3c0.6-0.6,1.2-0.4,1.2-0.3s-0.5,0.1-0.9,0.6c-0.2,0.3-0.3,0.6-0.3,1
		c0.1,0.4,0.4,0.8,0.8,0.9c0.4,0.1,0.8-0.1,1.1-0.5c0.2-0.3,0.2-0.7,0-1C158.4,249.4,157.9,249.4,157.9,249.3z"/>
	<polygon class="st16" points="172.5,242.6 174.6,264 185,264 187.5,242.6 	"/>
	<path class="st6" d="M172.5,239.8c-0.6,0.8-1,1.8-1,2.8h17c0.2-1.1-0.2-2.1-1-2.8H172.5z"/>
	<polygon class="st6" points="174.4,237.9 173.9,240 186.7,240.1 185.8,237.8 	"/>
	<path class="st6" d="M172.3,248c0,0.2,1.2,10.8,1.2,10.8h12.8l1.2-10.8H172.3z"/>
	<path class="st14" d="M173.1,246.1l-0.3,3.6l12.4,0.3c0,0,0,4.2-1.2,5.4c0,0,1.2,2.5-0.1,3.9s-2.2,1-2.2,1s0.6,2.8-0.8,3.5
		s-19.4-0.4-19.4-0.4l1.1-11.6l4-0.4C166.5,247.5,170.5,245.6,173.1,246.1z"/>
	<path class="st4" d="M157.4,136.8c-0.7-2.1-2.1-3.9-3.9-5c-1.3-0.7-2.7-1-4.2-0.9l0,0v-0.3c-1.3-2.4-4-2.9-6.7-2.5
		c-2.7,0.5-5.4,2.5-7.9,3.8c-3.3,1.8-6.4,3.8-9.6,5.8c-2.6,1.7-5.3,3.4-7.1,5.9c-1.9,2.7-2.7,6-2.1,9.3c0.7,3.5,2.8,7.1,1.5,10.4
		c-0.9,2.2-3,3.6-4.5,5.5c-2.3,3.1-2.4,7.2-0.2,10.4c1.5,2,3.7,3.1,5.7,4.5c3.2,2.1,6.1,4.8,9.6,6.5s7.9,2.3,11.1,0.1
		c3.2-2.2,4.4-6.8,3.8-10.7c-0.6-3.9-2.5-7.6-4-11.2c-2-4.8-3.4-9.8-4.1-15c-0.3-2.1-0.4-4.3,0.5-6.1c0.9-1.6,2.5-2.7,4-3.8
		c3.5-2.6,6.4-6,8.6-9.8c0.7,1.9,1.9,3.5,3.4,4.8c2,1.9,4.3,3.5,6.7,4.8C158.3,141.1,158.1,138.9,157.4,136.8z"/>
</g>
</svg>
