<?xml version="1.0" encoding="utf-8"?>
<!-- Generator: Adobe Illustrator 27.0.0, SVG Export Plug-In . SVG Version: 6.00 Build 0)  -->
<svg version="1.1" id="Layer_1" xmlns="http://www.w3.org/2000/svg" xmlns:xlink="http://www.w3.org/1999/xlink" x="0px" y="0px"
	 viewBox="0 0 500 500" style="enable-background:new 0 0 500 500;" xml:space="preserve">
<style type="text/css">
	.st0{fill:#EBEBEB;}
	.st1{fill:#F5F5F5;}
	.st2{fill:#F0F0F0;}
	.st3{fill:#E0E0E0;}
	.st4{fill:#263238;}
	.st5{opacity:0.6;fill:#FFFFFF;enable-background:new    ;}
	.st6{fill:#B8CD04;}
	.st7{fill:#FFFFFF;}
	.st8{opacity:0.3;enable-background:new    ;}
	.st9{fill:#EBB376;}
	.st10{opacity:0.2;enable-background:new    ;}
	.st11{fill:#D58745;}
	.st12{fill:#DE5753;}
	.st13{opacity:0.2;fill:#FFFFFF;enable-background:new    ;}
	.st14{opacity:0.2;}
	.st15{opacity:0.3;}
	.st16{opacity:0.75;}
</style>
<g id="freepik--background-complete--inject-3">
	<rect y="382.4" class="st0" width="500" height="0.2"/>
	<rect x="416.8" y="398.5" class="st0" width="33.1" height="0.2"/>
	<rect x="322.5" y="401.2" class="st0" width="8.7" height="0.2"/>
	<rect x="396.6" y="389.2" class="st0" width="19.2" height="0.2"/>
	<rect x="52.5" y="390.9" class="st0" width="43.2" height="0.2"/>
	<rect x="104.6" y="390.9" class="st0" width="6.3" height="0.2"/>
	<rect x="131.5" y="395.1" class="st0" width="93.7" height="0.2"/>
	<path class="st0" d="M237,337.8H43.9c-3.1,0-5.7-2.6-5.7-5.7V60.7c0-3.1,2.6-5.7,5.7-5.7H237c3.2,0,5.7,2.6,5.7,5.7c0,0,0,0,0,0
		v271.4C242.7,335.2,240.2,337.8,237,337.8z M43.9,55.2c-3,0-5.5,2.4-5.5,5.5v271.4c0,3,2.4,5.5,5.5,5.5H237c3,0,5.5-2.4,5.5-5.5
		V60.7c0-3-2.4-5.5-5.5-5.5H43.9z"/>
	<path class="st0" d="M453.3,337.8H260.2c-3.2,0-5.7-2.6-5.7-5.7V60.7c0-3.1,2.6-5.7,5.7-5.7h193.1c3.1,0,5.7,2.5,5.7,5.7v271.4
		C459,335.2,456.5,337.8,453.3,337.8z M260.2,55.2c-3,0-5.5,2.4-5.5,5.5v271.4c0,3,2.4,5.5,5.5,5.5h193.1c3,0,5.5-2.4,5.5-5.5V60.7
		c0-3-2.4-5.5-5.5-5.5H260.2z"/>
	<rect x="307.4" y="131.2" class="st1" width="5.7" height="119.6"/>
	<rect x="283.3" y="100.7" class="st1" width="53.9" height="73.5"/>
	<polygon class="st0" points="192.3,256 207.9,185.2 263.5,194.9 250.3,267 	"/>
	<polygon class="st2" points="140.7,215.2 185.1,205.5 208.8,272.4 154.6,287.7 	"/>
	<polygon class="st1" points="225.1,268.5 231.3,214.6 292.8,218.2 290.6,274.6 	"/>
	<path class="st2" d="M93.3,378.7H84V223.2h-8v155.5h-9.3c-1.8,0-3.3,1.5-3.3,3.3l0,0h33.2C96.6,380.2,95.1,378.7,93.3,378.7
		L93.3,378.7z"/>
	<path class="st3" d="M94.6,230.3c-3.9-9-3.5-19.2,1.1-27.8c3.8-7.1,7.3-14.6,6.5-16.1c-1.6-3.2-3.2-4.7-11.1-5.6
		c-5.2-0.6-6.2-3.6-6.2-5.6c0-1,0.4-2,1.1-2.6c7.3-6.6,7.7-21.8-4.6-23.7v-0.2c-0.4,0-0.8,0-1.2,0h-0.4c-0.4,0-0.8,0-1.2,0v0.2
		c-12.3,2-11.9,17.1-4.6,23.7c0.7,0.7,1.1,1.6,1.1,2.6c-0.1,2-1.1,5-6.2,5.6c-7.9,0.9-9.5,2.5-11.1,5.6c-0.8,1.6,2.7,9,6.5,16.1
		c4.5,8.6,4.9,18.9,1.1,27.8c-4.3,9.8-6.9,20.2-7.6,30.8c-0.1,2,1.4,3.7,3.4,3.7c0.1,0,0.1,0,0.2,0h37.2c2,0,3.6-1.6,3.6-3.6
		c0-0.1,0-0.1,0-0.2C101.5,250.5,99,240,94.6,230.3z"/>
	<path class="st2" d="M433.3,378.7H424V223.2h-8v155.5h-9.3c-1.8,0-3.3,1.5-3.3,3.3h33.2C436.6,380.2,435.1,378.7,433.3,378.7z"/>
	<path class="st3" d="M434.6,230.3c-3.9-9-3.5-19.2,1.1-27.8c3.8-7.1,7.3-14.6,6.5-16.1c-1.6-3.2-3.2-4.7-11.1-5.6
		c-5.2-0.6-6.2-3.6-6.2-5.6c0-1,0.4-2,1.1-2.6c7.3-6.6,7.7-21.8-4.6-23.7v-0.2c-0.4,0-0.8,0-1.2,0h-0.4c-0.4,0-0.8,0-1.2,0v0.2
		c-12.3,2-11.9,17.1-4.6,23.7c0.7,0.7,1.2,1.6,1.1,2.6c-0.1,2-1.1,5-6.2,5.6c-7.9,0.9-9.5,2.5-11.1,5.6c-0.8,1.6,2.7,9,6.5,16.1
		c4.5,8.6,4.9,18.9,1.1,27.8c-4.3,9.8-6.9,20.2-7.6,30.8c-0.1,2,1.4,3.7,3.4,3.7c0.1,0,0.1,0,0.2,0h37.2c2,0,3.6-1.6,3.6-3.6
		c0-0.1,0-0.1,0-0.2C441.5,250.5,439,240.1,434.6,230.3z"/>
	<rect x="122" y="246" class="st3" width="230.2" height="76"/>
	<path class="st3" d="M327.7,378.7c-1.8,0-3.3,1.5-3.3,3.3h33.2c0-1.8-1.5-3.3-3.3-3.3H345V223.2H127v155.5h-9.3
		c-1.8,0-3.3,1.5-3.3,3.3h33.2c0-1.8-1.5-3.3-3.3-3.3H135V230.8h202v147.9H327.7z"/>
</g>
<g id="freepik--Shadow--inject-3">
	<ellipse id="freepik--path--inject-3" class="st1" cx="250" cy="416.2" rx="193.9" ry="11.3"/>
</g>
<g id="freepik--Board--inject-3">
	<polygon class="st4" points="374.8,417.8 392,285.5 395.1,285.5 398.3,285.5 398.5,285.5 400.5,285.5 402,285.5 431.7,417.8 
		428.5,417.8 401.7,300.4 410.5,417.8 406.8,417.8 396.4,299.9 379,417.8 	"/>
	<polygon class="st5" points="374.8,417.8 392,285.5 395.1,285.5 398.3,285.5 398.5,285.5 400.5,285.5 402,285.5 431.7,417.8 
		428.5,417.8 401.7,300.4 410.5,417.8 406.8,417.8 396.4,299.9 379,417.8 	"/>
	<polygon class="st6" points="342.9,394.9 416.3,394.9 433.3,242 360,242 	"/>
	<polygon class="st5" points="342.9,394.9 416.3,394.9 433.3,242 360,242 	"/>
	<polygon class="st7" points="367.5,339.5 399.9,339.9 399.9,345.1 367.5,345.1 	"/>
	<polygon class="st7" points="358,351.7 410.5,351.7 410.5,358.5 355.6,358.2 	"/>
	<polygon class="st8" points="355.6,370.2 354,384 367.5,384 367.5,370.2 	"/>
	<polygon class="st8" points="375.9,370.2 374.8,384 388.9,384 388.9,372.2 	"/>
	<polygon class="st8" points="399.9,372.2 397.5,384 408,384 408,372.2 	"/>
</g>
<g id="freepik--Character--inject-3">
	<path class="st9" d="M175.9,197.6c9.2-1.7,7.6,31.3,11.2,39.1s26.3,27.8,26.3,27.8s9.8,0.8,11.4,1.6s1.7,6.6,0.5,6.6
		s-12,0.1-13.6-0.8s-2.4-4.2-2.4-4.2s-23.8-13.9-28.7-25.7c-4.1-9.8-7.9-26.9-9-32.9S173.6,198,175.9,197.6z"/>
	<path class="st6" d="M78.5,316.2c0,0,5.8-5.8,15.3,1.8s14.5,18.2,30.7,12.7s41,10,46-1.2c0,0-8.4-22.1-24.7-28.9
		S86.9,309.9,78.5,316.2z"/>
	<path class="st9" d="M132.4,283.2c-0.1,3.6-0.5,11.6-1.2,19.8c-0.9,10.9-2.4,22.3-4.8,24.4c-0.2,0.2-0.5,0.5-0.8,0.7
		c-1.1,0.9-2.7,2.2-4.7,3.6c-5,3.7-12.4,8.8-20.5,14.2l-3.4,2.3c-6,4.1-12.2,8.2-18,12c-2.2,1.5-4.4,3-6.5,4.3
		c-9.8,6.5-17,11.1-17,11.1l3.2,4.6c3.3-1.8,6.8-3.4,10.3-4.8l0,0c1.9-0.8,3.9-1.6,6-2.6c4.2-1.9,8.9-4.2,13.9-6.6
		c1.5-0.7,3-1.5,4.4-2.2c10.8-5.5,22.5-11.8,32-17.9c5-3.1,9.8-6.7,14.2-10.6c2.9-2.8,5-5.4,5.6-7.7c2.1-7,4.1-18,5.6-28.9
		c0.7-5.4,1.4-10.8,1.9-15.5L132.4,283.2z"/>
	<path class="st6" d="M57.2,373c0.7-0.1,2.1,8.7,2.1,8.7s-4.2,6.6-4.3,12.1s-3.8,3.3-5.2-2.5s-2.3-10.3-3.3-14.4
		S49.8,374.4,57.2,373z"/>
	<path class="st10" d="M154.3,266c0,0-1.4,16.1-3.6,32.7c-1.5,10.9-3.4,21.9-5.6,28.9c-0.7,2.3-2.7,4.9-5.6,7.7
		c-4.4,4-9.1,7.5-14.2,10.7c-1.7-4.9-3.2-10-4.4-14.3c2-1.5,3.6-2.7,4.7-3.6c0.3-0.2,0.6-0.5,0.8-0.7c2.3-2.1,3.8-13.4,4.8-24.4
		c1-11.1,1.3-21.8,1.3-21.8L154.3,266z"/>
	<path class="st4" d="M157.8,251l-30.6-5c0.9,0.1,6.9-13,8.2-17.7c1.9-6.5,3.3-18.9,2.1-26.9v-0.1c-0.5-3.3,1.8-6.3,5.1-6.8
		c0.1,0,0.2,0,0.3,0c2.4-0.2,4.9-0.3,7.3-0.3c4.9-0.1,9.7,0.2,14.5,0.9c6.2,1,13.2,2.9,13.2,2.9s1,0.4,0.5,7.1
		C178.1,211.3,175.7,231.7,157.8,251z"/>
	<path class="st9" d="M169.3,188.9c0,0-3.9,2.6-4.6,4.2c0,0.1-0.1,0.2-0.1,0.3c-0.2,1-0.3,1.9-0.4,2.9c1.1,3.4-3.2,5.3-3.2,5.3
		c-7.7-2.3-9.5-6.1-9.5-6.1c6.3-2.5,7.5-14.6,7.5-14.6l3.1,2.4L169.3,188.9z"/>
	<path class="st9" d="M175.2,370.3l-8.1-17.9L156.2,328l-1.9-4.2l-8.5-18.5l-10.1-22h-23c3,10.2,9,21.5,15.3,31.4
		c6.1,9.8,12.5,18.2,16.4,23.2c2.3,3,3.8,4.7,3.8,4.7c4.7,10.7,10.1,21.1,16,31.2c2.3,4,4.6,7.8,6.8,11.3c8,13,14.4,22.1,14.4,22.1
		l5-3L175.2,370.3z"/>
	<path class="st6" d="M182.1,404.6c-0.3-0.7,8.1-3.8,8.1-3.8s7.3,2.9,12.7,1.9s4,3.1-1.5,5.5l-13.5,6C184,416,185,411.6,182.1,404.6
		z"/>
	<path class="st6" d="M127.2,246c0,0-16.6,8.3-17.6,30.6c-0.6,12.4-31.1,39.5-31.1,39.5s1.3,4.5,9.9,4.7s24.7-9.2,36-6.6
		s10.3,6.9,19.3,5s18.2,0.5,26.9,10.1c0,0,3.9-32-12.8-55.8c0,0-1.3-6.3,0.1-22.7L127.2,246z"/>
	<path class="st5" d="M127.2,246c0,0-16.6,8.3-17.6,30.6c-0.6,12.4-31.1,39.5-31.1,39.5s1.3,4.5,9.9,4.7s24.7-9.2,36-6.6
		s10.3,6.9,19.3,5s18.2,0.5,26.9,10.1c0,0,3.9-32-12.8-55.8c0,0-1.3-6.3,0.1-22.7L127.2,246z"/>
	<polygon class="st6" points="128,244.3 157.8,251 157.4,256.4 124.5,247.7 	"/>
	<path class="st10" d="M148.9,250.9c0,1.1-0.9,2-2,2s-2-0.9-2-2s0.9-2,2-2S148.9,249.8,148.9,250.9z"/>
	<path class="st10" d="M169.3,188.9c0,0-3.9,2.6-4.6,4.2c0,0.1-0.1,0.2-0.1,0.3c-3.4-2.6-5.3-6.7-5-11l2.6,0.9L169.3,188.9z"/>
	<path class="st4" d="M184.3,177.8c-0.1,0-0.1,0-0.2-0.1c-0.1-0.1-0.1-0.3,0-0.4c1.5-1.3,6.1-6.2,1.9-13.3
		c-3.7-6.2-11.5-4.1-11.6-4.1c-0.1,0-0.3,0-0.3-0.2s0-0.3,0.2-0.3c0.1,0,8.2-2.2,12.1,4.3c4.5,7.5-0.4,12.6-1.9,13.9
		C184.4,177.8,184.3,177.8,184.3,177.8z"/>
	<path class="st4" d="M176.8,160.2c0,0,6.5,0.2,8.3,5.7s0.5,11.6-9.2,18.3s-17.8,0.3-21.6-4.2s-2.8-19.2,7.7-22
		C173,154.9,176.8,160.2,176.8,160.2z"/>
	<path class="st9" d="M170.6,162c8.2,1.1,10.3,5.9,9.8,14.5c-0.7,10.7-4.1,18-14.1,14.3C152.7,185.8,156.9,160.1,170.6,162z"/>
	<path class="st11" d="M175.1,175.3c0.5,1.3,1.1,2.6,1.9,3.8c-0.6,0.6-1.5,0.9-2.3,0.6L175.1,175.3z"/>
	<path class="st4" d="M170.2,174c-0.1,0.7-0.5,1.2-1,1.1s-0.8-0.6-0.7-1.3s0.5-1.2,1-1.1S170.2,173.3,170.2,174z"/>
	<path class="st4" d="M169.3,172.6l1.6-0.4C170.8,172.2,170,173.4,169.3,172.6z"/>
	<path class="st4" d="M178.6,174.8c-0.1,0.7-0.5,1.2-1,1.1s-0.8-0.6-0.7-1.3s0.5-1.2,0.9-1.1S178.7,174.1,178.6,174.8z"/>
	<path class="st4" d="M177.8,173.4l1.6-0.4C179.3,173,178.4,174.2,177.8,173.4z"/>
	<path class="st4" d="M167.1,169.4c-0.1,0-0.2,0-0.3-0.1c-0.1-0.1-0.1-0.4,0-0.5c1.1-0.9,2.7-1.2,4.1-0.8c0.2,0,0.3,0.2,0.2,0.4
		s-0.2,0.3-0.4,0.2l0,0c-1.2-0.3-2.4,0-3.4,0.7C167.3,169.3,167.2,169.3,167.1,169.4z"/>
	<path class="st4" d="M180.1,170.2c-0.1,0-0.2,0-0.2-0.1c-0.8-0.8-1.8-1.1-2.9-1c-0.2,0-0.4-0.1-0.4-0.3s0.1-0.4,0.3-0.4
		c1.3-0.2,2.6,0.3,3.5,1.2c0.1,0.1,0.2,0.3,0,0.5C180.3,170.2,180.2,170.2,180.1,170.2L180.1,170.2z"/>
	<path class="st4" d="M159.7,174.7c0,0,4.8-6.3,4.9-11.6c0,0,17.3-4.4,15.8,12.3c0,0,3.6-14.5-10.5-16.8s-16.9,18.5-10.4,25.7
		C159.5,184.3,156.8,178.6,159.7,174.7z"/>
	<path class="st9" d="M160.8,176.6c0.1-2-1.4-3.7-3.4-3.8c0,0,0,0,0,0c-2.6-0.1-4.5,5,1.7,7.1C159.9,180.2,160.6,179.4,160.8,176.6z
		"/>
	<path class="st4" d="M160.4,159.7c-0.8-3-2.8-5.6-5.5-7.1c-4.7-2.9-9.9-1.1-14.2,8.6s-10.7,7.5-13.4,5.1c0,0,0.9,4.6,7.4,6.5
		s10.1-1.4,13.2-6.8c1.6-3,5.2-4.4,8.4-3L160.4,159.7z"/>
	<path class="st4" d="M174.3,182.2c-0.3,1-0.6,2-0.8,3c-0.2,0-0.4,0-0.6,0c-2.5-0.1-3.6-1-4.1-1.9c-0.2-0.5-0.3-1-0.3-1.5
		c0-0.3,0-0.6,0.1-0.9c1.5,0.8,3.2,1.2,4.8,1.2C174,182.2,174.3,182.2,174.3,182.2z"/>
	<path class="st7" d="M173.5,182.1l-0.3,0.9c-2.4-0.1-4-0.5-4.7-1.2c0-0.3,0-0.6,0.1-0.9C170.1,181.6,171.8,182,173.5,182.1z"/>
	<path class="st12" d="M172.9,185.1c-2.5-0.1-3.6-1-4.1-1.9c0.9,0.1,1.9,0.3,2.7,0.7C172.1,184.2,172.6,184.6,172.9,185.1z"/>
	<path class="st4" d="M142.2,174.9c-0.1,0-0.2-0.1-0.2-0.2c0-0.1,0-0.3,0.1-0.3c3.1-1.1,4.5-4,5.8-6.8c0.7-1.8,1.7-3.5,3-5
		c3.4-3.2,6.2-0.6,6.2-0.6c0.1,0.1,0.1,0.3,0,0.4c-0.1,0.1-0.2,0.1-0.3,0c-0.1-0.1-2.4-2.3-5.5,0.6c-1.3,1.4-2.3,3-2.9,4.8
		C147,170.7,145.6,173.7,142.2,174.9L142.2,174.9z"/>
	<path class="st6" d="M150.6,183.1c0.3,0,0.5-0.2,0.6-0.4l2.8-4c0.3-0.4,0.2-0.9-0.1-1.1l-3.9-3.3c-0.2-0.1-0.4-0.2-0.7-0.2
		l-9.3,1.1c-0.4,0.1-0.8,0.5-0.8,0.9l0.4,7.1c0,0.5,0.4,0.8,0.9,0.8c0,0,0,0,0,0L150.6,183.1z M152.1,178.4c0-0.3,0.2-0.6,0.5-0.6
		c0,0,0,0,0,0c0.3,0,0.6,0.2,0.6,0.6c0,0.3-0.3,0.6-0.7,0.5C152.4,178.9,152.2,178.7,152.1,178.4L152.1,178.4z"/>
	<path class="st7" d="M146.2,176.1c0.8-0.1,1.5,0.4,1.6,1.1c0,0,0,0.1,0,0.1c0,0.7-0.6,1.3-1.5,1.3s-1.6-0.5-1.6-1.3
		S145.3,176.1,146.2,176.1z M146.2,176.7c-0.6,0-0.9,0.3-0.9,0.6s0.3,0.6,1,0.6s0.9-0.3,0.9-0.6S146.9,176.7,146.2,176.7
		L146.2,176.7z M141.8,177.9v-0.9l6,3.4v0.9L141.8,177.9z M143.4,180c0.8-0.1,1.5,0.4,1.6,1.2c0,0,0,0.1,0,0.1
		c0,0.7-0.6,1.3-1.5,1.3s-1.6-0.5-1.6-1.3S142.5,180.1,143.4,180L143.4,180z M143.4,180.7c-0.6,0-0.9,0.3-0.9,0.6s0.3,0.6,1,0.6
		s0.9-0.3,0.9-0.6S144.1,180.7,143.4,180.7L143.4,180.7z"/>
	<path class="st7" d="M153.3,178.6c-0.1,0-0.3-0.1-0.3-0.2c0-0.1,0.1-0.2,0.2-0.2c0.1,0,6.1-3,6.1-7.9c0-0.1,0.1-0.2,0.2-0.2l0,0
		c0.1,0,0.2,0.1,0.2,0.2c0,5.2-6.1,8.2-6.4,8.4C153.3,178.6,153.3,178.6,153.3,178.6z"/>
	<path class="st6" d="M158.6,169.8l6.6-12.6c5.5,0.2,10.9,0.8,16.3,1.8c0,0,2.6,2,1.1,3.3s-4.5,0.4-5.4-0.4
		c-0.7-0.8-1.1-1.7-1.4-2.6l-1.6-0.2c0,0,1.5,3.3-0.9,3.2s-6.6-1.6-7.4-3.7l-7.2,12.8L158.6,169.8z"/>
	<path class="st9" d="M140.1,195.2c11.4-1.7,12.4,33.4,16.9,41.6s32.3,29.2,32.3,29.2s9.1-0.9,11,0s2.1,6.9,0.6,6.9
		s-11.7,1.8-13.7,0.9s-3-4.5-3-4.5s-29.2-14.6-35.3-27c-5-10.3-9.8-28.2-11.1-34.5S137.3,195.7,140.1,195.2z"/>
	<path class="st6" d="M156.1,214.1l5.7,10.9c0.4,0.7,1.2,1,1.9,0.6c0.2-0.1,0.4-0.2,0.5-0.4l7.1-9.7c0.5-0.6,0.3-1.5-0.3-2
		c-0.2-0.2-0.5-0.3-0.7-0.3l-12.9-1.1c-0.8-0.1-1.5,0.5-1.5,1.3C156,213.6,156,213.8,156.1,214.1z"/>
	<path class="st7" d="M155.3,218.3v0.3c0,0.8,0.6,1.4,1.4,1.4l13.3,0.6c0.7,0,1.4-0.5,1.5-1.2l0,0c0.1-0.8-0.4-1.5-1.2-1.7
		c-0.1,0-0.1,0-0.2,0l-13.3-1c-0.8-0.1-1.5,0.5-1.5,1.3C155.3,218.2,155.3,218.2,155.3,218.3z"/>
</g>
<g id="freepik--Cart--inject-3">
	<path class="st6" d="M316.4,226.9c0.1,0.5,0.4,1,0.8,1.3l8.8,5.9c0.8,0.5,1.9,0.4,2.5-0.4l6.9-8.6c0.3-0.4,0.5-0.9,0.4-1.4l-3-20.1
		c-0.2-1-1-1.7-2-1.6l-15.4,1.3c-1,0.1-1.8,1-1.7,2c0,0,0,0.1,0,0.1L316.4,226.9z M326.8,229.9c0.7,0,1.3,0.5,1.3,1.2c0,0,0,0,0,0
		c0,0.7-0.5,1.3-1.2,1.3c0,0,0,0,0,0c-0.7,0-1.3-0.6-1.2-1.3C325.7,230.5,326.1,230,326.8,229.9L326.8,229.9z"/>
	<path class="st5" d="M316.4,226.9c0.1,0.5,0.4,1,0.8,1.3l8.8,5.9c0.8,0.5,1.9,0.4,2.5-0.4l6.9-8.6c0.3-0.4,0.5-0.9,0.4-1.4l-3-20.1
		c-0.2-1-1-1.7-2-1.6l-15.4,1.3c-1,0.1-1.8,1-1.7,2c0,0,0,0.1,0,0.1L316.4,226.9z M326.8,229.9c0.7,0,1.3,0.5,1.3,1.2c0,0,0,0,0,0
		c0,0.7-0.5,1.3-1.2,1.3c0,0,0,0,0,0c-0.7,0-1.3-0.6-1.2-1.3C325.7,230.5,326.1,230,326.8,229.9L326.8,229.9z"/>
	<path class="st6" d="M331.5,216.9c0.1,2.1-1.1,3.5-2.6,3.5s-2.8-1.1-2.9-3.1s1-3.5,2.6-3.6S331.4,215,331.5,216.9z M330.1,217
		c-0.1-1.4-0.6-1.9-1.4-1.9s-1.3,0.6-1.3,2.1s0.7,1.9,1.4,1.9S330.1,218.5,330.1,217L330.1,217z M327.1,207.6l1.9-0.1l-7,13.3
		l-1.9,0.1L327.1,207.6z M322.7,211.1c0.1,2.1-1.1,3.5-2.6,3.5s-2.8-1.1-2.9-3.1s1-3.5,2.6-3.6S322.6,209.1,322.7,211.1L322.7,211.1
		z M321.3,211.2c-0.1-1.4-0.6-1.9-1.4-1.9s-1.3,0.6-1.3,2.1s0.7,1.9,1.4,1.9S321.3,212.7,321.3,211.2L321.3,211.2z"/>
	<path class="st4" d="M311.9,259.6c-0.3,0-0.5-0.1-0.6-0.4c0-0.3,0.1-0.5,0.4-0.6c14.9-5,14.7-27.3,14.7-27.5c0-0.3,0.2-0.5,0.5-0.5
		s0.5,0.2,0.5,0.5c0,0.2,0.2,23.3-15.4,28.5C312,259.6,311.9,259.6,311.9,259.6z"/>
	<path class="st6" d="M280.6,252.2h-0.1c-0.4-0.1-9.4-1.7-11.9-5.9c-0.7-1.1-0.9-2.5-0.4-3.7c0.4-1.3,1.7-3,5.6-3.4
		c6.5-0.8,17.4,2.4,19.4,5.7c0.2,0.3,0.1,0.8-0.2,1c-0.3,0.2-0.8,0.1-1-0.2c-1.6-2.6-11.7-5.7-18-5c-1.7,0.2-3.8,0.8-4.3,2.4
		c-0.3,0.8-0.2,1.8,0.3,2.5c2.1,3.6,10.8,5.1,10.9,5.2c0.4,0.1,0.7,0.5,0.6,0.9C281.3,251.9,281,252.2,280.6,252.2L280.6,252.2z"/>
	<polygon class="st6" points="316.4,241.3 326,302.6 295.5,312.1 280.3,308.5 275.3,252.1 289,242.8 	"/>
	<polygon class="st13" points="295.5,312.1 289,242.8 275.3,252.1 280.3,308.5 	"/>
	<path class="st6" d="M295.4,247.1c-0.2,0-0.4-0.1-0.5-0.2c-0.2-0.2-5.6-6.1-5.4-11.6c0.1-2,1-3.9,2.5-5.2c1.9-1.7,4.7-2.1,7.1-1.1
		c5.9,2.1,12,10.3,12.8,15.2c0.1,0.4-0.2,0.8-0.6,0.9c-0.4,0.1-0.8-0.2-0.9-0.6c-0.7-4.5-6.5-12.1-11.8-14c-1.8-0.9-4-0.5-5.6,0.8
		c-1.2,1-2,2.5-2,4.1c-0.2,4.9,4.9,10.4,5,10.5c0.3,0.3,0.3,0.8,0,1.1C295.9,247,295.7,247.1,295.4,247.1L295.4,247.1z"/>
	<g class="st14">
		<path class="st7" d="M295.4,247.1c-0.2,0-0.4-0.1-0.5-0.2c-0.2-0.2-5.6-6.1-5.4-11.6c0.1-2,1-3.9,2.5-5.2c1.9-1.7,4.7-2.1,7.1-1.1
			c5.9,2.1,12,10.3,12.8,15.2c0.1,0.4-0.2,0.8-0.6,0.9c-0.4,0.1-0.8-0.2-0.9-0.6c-0.7-4.5-6.5-12.1-11.8-14c-1.8-0.9-4-0.5-5.6,0.8
			c-1.2,1-2,2.5-2,4.1c-0.2,4.9,4.9,10.4,5,10.5c0.3,0.3,0.3,0.8,0,1.1C295.9,247,295.7,247.1,295.4,247.1L295.4,247.1z"/>
	</g>
	<path class="st6" d="M259.5,292.3c-0.5,0-1-0.1-1.4-0.4l-25.8-17c-0.5-0.3-1-0.5-1.6-0.5H183l16.9,13.5c1.1,0.8,1.4,2.4,0.5,3.5
		c-0.8,1.1-2.4,1.4-3.5,0.5c-0.1,0-0.1-0.1-0.2-0.1l-22.6-17.9c-1.1-0.9-1.3-2.4-0.4-3.5c0.5-0.6,1.2-1,2-0.9h54.9
		c1.6,0,3.1,0.5,4.4,1.3l25.8,17c1.1,0.8,1.5,2.3,0.7,3.5C261.1,291.9,260.3,292.3,259.5,292.3L259.5,292.3z"/>
	<g class="st15">
		<path d="M259.5,292.3c-0.5,0-1-0.1-1.4-0.4l-25.8-17c-0.5-0.3-1-0.5-1.6-0.5H183l16.9,13.5c1.1,0.8,1.4,2.4,0.5,3.5
			c-0.8,1.1-2.4,1.4-3.5,0.5c-0.1,0-0.1-0.1-0.2-0.1l-22.6-17.9c-1.1-0.9-1.3-2.4-0.4-3.5c0.5-0.6,1.2-1,2-0.9h54.9
			c1.6,0,3.1,0.5,4.4,1.3l25.8,17c1.1,0.8,1.5,2.3,0.7,3.5C261.1,291.9,260.3,292.3,259.5,292.3L259.5,292.3z"/>
	</g>
	<polygon class="st6" points="206.4,330.3 239,258 272.7,253.2 280.6,265.5 267.1,346.4 229.1,349.5 	"/>
	<polygon class="st5" points="206.4,330.3 239,258 272.7,253.2 280.6,265.5 267.1,346.4 229.1,349.5 	"/>
	<polygon class="st10" points="272.7,253.2 252.1,321.7 206.4,330.3 229.1,349.5 267.1,346.4 280.6,265.5 	"/>
	<polygon class="st10" points="206.4,330.3 252.1,321.7 267.1,346.4 229.1,349.5 	"/>
	<path class="st4" d="M247.1,267h-0.7c-3.6-0.1-5.6-1-6.1-2.5c-0.8-2.8,4-6.4,5-7.1c0.3-0.2,0.8-0.1,1,0.2c0.2,0.3,0.1,0.8-0.2,1
		c-2.1,1.5-4.8,4.1-4.4,5.5c0.1,0.4,0.8,1.3,4.7,1.5c11.3,0.4,16.6-9,16.7-9.1c0.2-0.4,0.6-0.5,1-0.4c0.4,0.2,0.5,0.6,0.4,1
		c0,0,0,0.1-0.1,0.1C264.4,257.2,258.8,267,247.1,267z"/>
	<polygon class="st4" points="269.2,351.6 267.1,279.1 304,272.7 321,279.1 318.4,345.2 301.2,353.9 	"/>
	<polygon class="st8" points="304,272.7 301.2,353.9 318.4,345.2 321,279.1 	"/>
	<path class="st6" d="M285,298.2c-1.9,0-3.8-0.7-5.1-2.1c-4.5-4.6-3.9-14.9-3.9-15.3c0-0.4,0.4-0.7,0.8-0.7c0.4,0,0.7,0.4,0.7,0.8
		c0,0,0,0,0,0c0,0.1-0.6,10.1,3.4,14.2c1.1,1.2,2.7,1.8,4.3,1.7c1.5,0,2.9-0.7,3.9-1.9c4.2-4.9,3.1-17.2,3.1-17.3
		c0-0.4,0.3-0.8,0.7-0.8c0,0,0,0,0,0c0.4,0,0.8,0.2,0.8,0.6c0,0,0,0,0,0c0.1,0.5,1.2,13.1-3.4,18.5c-1.2,1.5-3,2.3-4.9,2.4
		L285,298.2z"/>
	<g class="st15">
		<path d="M285,298.2c-1.9,0-3.8-0.7-5.1-2.1c-4.5-4.6-3.9-14.9-3.9-15.3c0-0.4,0.4-0.7,0.8-0.7c0.4,0,0.7,0.4,0.7,0.8c0,0,0,0,0,0
			c0,0.1-0.6,10.1,3.4,14.2c1.1,1.2,2.7,1.8,4.3,1.7c1.5,0,2.9-0.7,3.9-1.9c4.2-4.9,3.1-17.2,3.1-17.3c0-0.4,0.3-0.8,0.7-0.8
			c0,0,0,0,0,0c0.4,0,0.8,0.2,0.8,0.6c0,0,0,0,0,0c0.1,0.5,1.2,13.1-3.4,18.5c-1.2,1.5-3,2.3-4.9,2.4L285,298.2z"/>
	</g>
	<path class="st4" d="M337.5,407.2c-1.7-3-6.2-3.7-9.9-1.5s-5.4,6.4-3.6,9.4s6.2,3.7,9.9,1.5S339.2,410.2,337.5,407.2z"/>
	<path class="st4" d="M243.6,405.6c-3.7,2.2-5.4,6.4-3.6,9.4s6.2,3.7,9.9,1.5s5.4-6.4,3.6-9.4S247.3,403.5,243.6,405.6z"/>
	<path class="st6" d="M326.5,408.7H245c-1.4,0-2.5-1.1-2.5-2.5s1.1-2.5,2.5-2.5h81.5c0.8,0,1.5-0.7,1.5-1.5v-6.5
		c0-0.7-0.5-1.3-1.2-1.5l-67.4-14.6c-6.1-1.3-10.4-6.7-10.4-12.9v-12.7c0-1.4,1.1-2.5,2.5-2.5s2.5,1.1,2.5,2.5v12.7
		c0,3.8,2.7,7.2,6.4,8l67.4,14.6c3,0.7,5.1,3.3,5.1,6.4v6.5C333,405.8,330.1,408.7,326.5,408.7z"/>
	<g class="st15">
		<path d="M326.5,408.7H245c-1.4,0-2.5-1.1-2.5-2.5s1.1-2.5,2.5-2.5h81.5c0.8,0,1.5-0.7,1.5-1.5v-6.5c0-0.7-0.5-1.3-1.2-1.5
			l-67.4-14.6c-6.1-1.3-10.4-6.7-10.4-12.9v-12.7c0-1.4,1.1-2.5,2.5-2.5s2.5,1.1,2.5,2.5v12.7c0,3.8,2.7,7.2,6.4,8l67.4,14.6
			c3,0.7,5.1,3.3,5.1,6.4v6.5C333,405.8,330.1,408.7,326.5,408.7z"/>
	</g>
	<path class="st6" d="M326.4,322.6v-0.2l2.9-16.1l0,0l3-16.6c0.2-1.4-0.7-2.7-2-2.9c-0.1,0-0.3,0-0.4,0h-31.8
		c-1.4,0-2.5,1.1-2.5,2.5s1.1,2.5,2.5,2.5h9.1l-1.6,11.5h-68.5c-1.4,0-2.5,1.1-2.5,2.5s1.1,2.5,2.5,2.5H305l-1.6,11.2h-62.1
		c-1.4,0-2.5,1.1-2.5,2.5s1.1,2.5,2.5,2.5h61.4l-1.6,11.6h-55.7c-1.4,0-2.5,1.1-2.5,2.5s1.1,2.5,2.5,2.5h55l-1.5,10.5h-6.5
		c-1.4,0-2.5,1.1-2.5,2.5s1.1,2.5,2.5,2.5h25.8c1.2,0,2.2-0.9,2.5-2.1l2.8-15.4l0,0L326.4,322.6z M321.9,319.5h-3.5l2-11.2h3.6
		L321.9,319.5z M321,324.5l-2.1,11.6h-3.4l2-11.6H321z M324.9,303.2h-3.6l2-11.5h3.6L324.9,303.2z M312.3,291.7h5.9l-2,11.5h-5.5
		L312.3,291.7z M310,308.2h5.3l-2,11.2h-4.9L310,308.2z M307.7,324.5h4.7l-2,11.6h-4.3L307.7,324.5z M305.4,341.1h4.1l-1.8,10.5H304
		L305.4,341.1z M312.8,351.6l1.9-10.5h3.4l-1.9,10.5H312.8z"/>
	<g class="st15">
		<path d="M326.4,322.6v-0.2l2.9-16.1l0,0l3-16.6c0.2-1.4-0.7-2.7-2-2.9c-0.1,0-0.3,0-0.4,0h-31.8c-1.4,0-2.5,1.1-2.5,2.5
			s1.1,2.5,2.5,2.5h9.1l-1.6,11.5h-68.5c-1.4,0-2.5,1.1-2.5,2.5s1.1,2.5,2.5,2.5H305l-1.6,11.2h-62.1c-1.4,0-2.5,1.1-2.5,2.5
			s1.1,2.5,2.5,2.5h61.4l-1.6,11.6h-55.7c-1.4,0-2.5,1.1-2.5,2.5s1.1,2.5,2.5,2.5h55l-1.5,10.5h-6.5c-1.4,0-2.5,1.1-2.5,2.5
			s1.1,2.5,2.5,2.5h25.8c1.2,0,2.2-0.9,2.5-2.1l2.8-15.4l0,0L326.4,322.6z M321.9,319.5h-3.5l2-11.2h3.6L321.9,319.5z M321,324.5
			l-2.1,11.6h-3.4l2-11.6H321z M324.9,303.2h-3.6l2-11.5h3.6L324.9,303.2z M312.3,291.7h5.9l-2,11.5h-5.5L312.3,291.7z M310,308.2
			h5.3l-2,11.2h-4.9L310,308.2z M307.7,324.5h4.7l-2,11.6h-4.3L307.7,324.5z M305.4,341.1h4.1l-1.8,10.5H304L305.4,341.1z
			 M312.8,351.6l1.9-10.5h3.4l-1.9,10.5H312.8z"/>
	</g>
	<path class="st6" d="M300,287.5c-0.5-0.5-1.1-0.8-1.8-0.8H196.4c-0.8,0-1.5,0.3-2,0.9c-0.5,0.6-0.6,1.4-0.5,2.1l3.8,16.5l0,0
		l11,48.4c0.2,1.2,1.3,2,2.4,2h81.3c1.3,0,2.4-1,2.5-2.3l5.7-64.9C300.7,288.8,300.5,288.1,300,287.5z M291.5,336.1h-11.6l0.5-11.6
		h12.1L291.5,336.1z M227.1,351.6l-1.4-10.5h12.5l0.8,10.5H227.1z M241.7,319.5l-0.8-11.3h16.5v11.3H241.7z M257.4,324.5v11.6h-14.5
		l-0.8-11.6H257.4z M262.4,308.2h13.8l-0.5,11.3h-13.3V308.2z M262.4,303.2v-11.5h14.5l-0.5,11.5H262.4z M257.4,303.2h-16.8
		l-0.8-11.5h17.7V303.2z M235.5,303.2h-14.6l-1.5-11.5h15.3L235.5,303.2z M235.9,308.2l0.8,11.3H223l-1.5-11.3H235.9z M217.9,319.5
		h-12.1l-2.6-11.3h13.2L217.9,319.5z M207,324.5h11.6l1.5,11.6h-10.4L207,324.5z M223.6,324.5H237l0.8,11.6h-12.8L223.6,324.5z
		 M243.3,341.1h14.1v10.5H244L243.3,341.1z M262.4,341.1h12.3l-0.5,10.5h-11.9V341.1z M262.4,336.1v-11.6h13.1l-0.5,11.6H262.4z
		 M280.6,319.5l0.5-11.3H294l-1,11.3H280.6z M294.4,303.2h-13l0.5-11.5h13.6L294.4,303.2z M214.3,291.7l1.5,11.5h-13.7l-2.6-11.5
		H214.3z M210.8,341.1h9.9l1.4,10.5h-8.9L210.8,341.1z M279.2,351.6l0.5-10.5h11.4l-0.9,10.5H279.2z"/>
	<path class="st6" d="M286.5,408.7H205c-1.4,0-2.5-1.1-2.5-2.5s1.1-2.5,2.5-2.5h81.5c0.8,0,1.5-0.7,1.5-1.5v-6.5
		c0-0.7-0.5-1.3-1.2-1.5l-67.4-14.6c-6.1-1.3-10.4-6.7-10.4-12.9v-12.7c0-1.4,1.1-2.5,2.5-2.5s2.5,1.1,2.5,2.5v12.7
		c0,3.8,2.7,7.2,6.4,8l67.4,14.6c3,0.7,5.1,3.3,5.1,6.4v6.5C293,405.8,290.1,408.7,286.5,408.7z"/>
	<ellipse transform="matrix(0.866 -0.5 0.5 0.866 -167.1264 198.4371)" class="st4" cx="286.7" cy="411.1" rx="7.8" ry="6.3"/>
	<path class="st6" d="M288.6,408.9c0.9,1.5,0.1,3.5-1.8,4.6s-4,0.7-4.9-0.8s-0.1-3.5,1.8-4.6S287.8,407.5,288.6,408.9z"/>
	<ellipse transform="matrix(0.866 -0.5 0.5 0.866 -178.3798 156.439)" class="st4" cx="202.7" cy="411.1" rx="7.8" ry="6.3"/>
	<path class="st6" d="M204.6,408.9c0.9,1.5,0.1,3.5-1.8,4.6s-4,0.7-4.9-0.8s-0.1-3.5,1.8-4.6S203.8,407.5,204.6,408.9z"/>
	<path class="st6" d="M238.6,239.6c0.4,0.3,1,0.4,1.5,0.2l10.2-2.8c0.9-0.3,1.5-1.2,1.3-2.1l-2-10.8c-0.1-0.5-0.4-1-0.8-1.2
		L231.6,212c-0.8-0.5-1.9-0.3-2.5,0.5l-9,12.5c-0.6,0.8-0.4,2,0.4,2.6c0,0,0,0,0.1,0L238.6,239.6z M247.6,233.7
		c0.4-0.5,1.2-0.6,1.8-0.2c0.5,0.4,0.6,1.2,0.2,1.8c-0.4,0.5-1.2,0.6-1.8,0.2C247.3,235,247.2,234.2,247.6,233.7L247.6,233.7z"/>
	<path class="st7" d="M240.9,221.6c1.6,1.3,1.9,3.1,0.9,4.3s-2.7,1.4-4.2,0.1s-2-3-1-4.3S239.3,220.4,240.9,221.6z M240,222.8
		c-1.1-0.9-1.9-0.8-2.3-0.2s-0.4,1.4,0.8,2.4s1.9,0.7,2.4,0.2S241.2,223.7,240,222.8z M230.9,218.8l1.2-1.5l5.5,14l-1.2,1.5
		L230.9,218.8z M230.7,224.5c1.6,1.3,1.9,3.1,1,4.3s-2.7,1.4-4.2,0.1s-2-3-1-4.3S229.2,223.3,230.7,224.5z M229.8,225.7
		c-1.1-0.9-1.9-0.8-2.3-0.2s-0.4,1.4,0.8,2.4s1.9,0.7,2.4,0.2S231,226.6,229.8,225.7L229.8,225.7z"/>
	<path class="st6" d="M299.6,304.2c-0.2-0.5-0.7-0.9-1.2-1l-10.2-2.9c-0.9-0.3-1.9,0.2-2.2,1.1l-3.9,10.3c-0.2,0.5-0.2,1,0.1,1.5
		l9.1,18.2c0.4,0.9,1.5,1.3,2.4,0.9l14.2-5.9c1-0.4,1.4-1.5,1-2.4c0,0,0-0.1,0-0.1L299.6,304.2z M288.9,304.5
		c-0.7,0.2-1.4-0.1-1.6-0.7c-0.2-0.7,0.1-1.4,0.7-1.6c0.7-0.2,1.4,0.1,1.6,0.7c0,0,0,0,0,0C289.9,303.5,289.5,304.3,288.9,304.5
		C288.9,304.5,288.9,304.5,288.9,304.5L288.9,304.5z"/>
	<path class="st5" d="M299.6,304.2c-0.2-0.5-0.7-0.9-1.2-1l-10.2-2.9c-0.9-0.3-1.9,0.2-2.2,1.1l-3.9,10.3c-0.2,0.5-0.2,1,0.1,1.5
		l9.1,18.2c0.4,0.9,1.5,1.3,2.4,0.9l14.2-5.9c1-0.4,1.4-1.5,1-2.4c0,0,0-0.1,0-0.1L299.6,304.2z M288.9,304.5
		c-0.7,0.2-1.4-0.1-1.6-0.7c-0.2-0.7,0.1-1.4,0.7-1.6c0.7-0.2,1.4,0.1,1.6,0.7c0,0,0,0,0,0C289.9,303.5,289.5,304.3,288.9,304.5
		C288.9,304.5,288.9,304.5,288.9,304.5L288.9,304.5z"/>
	<path class="st4" d="M288.3,318.3c-0.7-2,0-3.6,1.4-4.2s3,0.2,3.7,2.1s0.1,3.6-1.4,4.2S289,320.2,288.3,318.3z M289.7,317.8
		c0.5,1.3,1.2,1.6,1.9,1.4s1.1-1,0.5-2.4s-1.3-1.6-1.9-1.4S289.1,316.4,289.7,317.8L289.7,317.8z M295.4,325.9l-1.8,0.7l2.6-14.8
		l1.8-0.7L295.4,325.9z M298.5,321.2c-0.7-2,0-3.6,1.4-4.2s3,0.2,3.7,2.1s0.2,3.6-1.4,4.2S299.2,323,298.5,321.2L298.5,321.2z
		 M299.8,320.6c0.5,1.3,1.2,1.6,1.9,1.4s1.1-1,0.5-2.4s-1.3-1.6-1.9-1.4S299.3,319.3,299.8,320.6L299.8,320.6z"/>
	<path class="st4" d="M204,302.3c0.8-0.4,1.3-1,1.6-1.8l4.7-15.9c0.4-1.4-0.3-3-1.7-3.5l-16-6.3c-0.8-0.3-1.6-0.3-2.3,0.1
		l-28.5,13.9c-1.4,0.7-2,2.3-1.4,3.7l9,22.3c0.6,1.5,2.3,2.2,3.8,1.6c0,0,0.1,0,0.1-0.1L204,302.3z M203.7,285.5
		c-0.4-1,0.1-2.2,1.2-2.6c1-0.4,2.2,0.1,2.6,1.2s-0.1,2.2-1.2,2.6c0,0,0,0,0,0C205.2,287.1,204,286.6,203.7,285.5L203.7,285.5z"/>
	<path class="st7" d="M182.2,284.5c3.1-1.1,5.6,0,6.5,2.3s-0.4,4.7-3.3,5.7s-5.6,0.2-6.5-2.3S179.2,285.5,182.2,284.5z M182.9,286.6
		c-2.1,0.8-2.5,1.9-2.2,2.9s1.6,1.7,3.8,0.9c2-0.7,2.5-2,2.2-3S185.1,285.8,182.9,286.6L182.9,286.6z M170.2,295.3l-1-2.8l23,4.3
		l1,2.8L170.2,295.3z M177.6,300.3c3.1-1.1,5.7,0,6.5,2.3s-0.4,4.7-3.3,5.7s-5.6,0.2-6.5-2.3S174.6,301.3,177.6,300.3z M178.3,302.4
		c-2.1,0.8-2.6,1.9-2.2,2.9s1.6,1.7,3.8,0.9c2-0.7,2.5-2,2.2-3S180.5,301.6,178.3,302.4z"/>
	<path class="st6" d="M206.4,284.5c-0.3,0-0.5-0.2-0.6-0.4c0-0.3,0.2-0.5,0.4-0.6c0.3-0.1,32.1-6.6,36.8-19.6
		c0.1-0.3,0.4-0.4,0.6-0.3c0.2,0.1,0.4,0.4,0.3,0.6C239.1,277.8,207.8,284.3,206.4,284.5L206.4,284.5z"/>
	<path class="st4" d="M266.3,243.9c-9,0-16.7-8-17.1-8.3c-0.2-0.2-0.2-0.5,0-0.7c0,0,0,0,0,0c0.2-0.2,0.5-0.2,0.7,0c0,0,0,0,0,0
		c0.1,0.1,10.3,10.6,20.4,7.4c0.3-0.1,0.5,0.1,0.6,0.3c0.1,0.3,0,0.5-0.3,0.6c0,0,0,0,0,0C269.3,243.7,267.8,243.9,266.3,243.9z"/>
	<path class="st6" d="M288.4,303.7c-0.1,0-0.2,0-0.3-0.1c-0.1-0.1-2.9-2.5-2.4-8.1c0-0.3,0.3-0.5,0.5-0.5c0.3,0,0.5,0.3,0.5,0.5
		c-0.5,5,1.9,7.1,2,7.2c0.2,0.2,0.2,0.5,0.1,0.7c0,0,0,0,0,0C288.7,303.7,288.6,303.7,288.4,303.7z"/>
</g>
<g>
	<g>
		<g class="st16">
			<image style="overflow:visible;" width="19" height="8" xlink:href="F6B344B2.png"  transform="matrix(1 0 0 1 244 277)">
			</image>
		</g>
		<path class="st7" d="M261.4,276.6l-15.5-2.5c-0.4-0.1-0.8,0.1-0.8,0.4l-1,6.3c0,0.3,0.2,0.6,0.6,0.6l15.5,2.5
			c0.4,0.1,0.8-0.1,0.8-0.4l1-6.3C262.1,276.9,261.8,276.6,261.4,276.6z"/>
	</g>
	<g>
		<g>
			<rect x="245.8" y="274.9" transform="matrix(0.9867 0.1626 -0.1626 0.9867 48.4645 -36.2672)" width="0.1" height="6.1"/>
			<rect x="245.9" y="274.9" transform="matrix(0.9867 0.1626 -0.1626 0.9867 48.4695 -36.2874)" width="0.1" height="6.1"/>
			<rect x="246.5" y="275" transform="matrix(0.9867 0.1626 -0.1626 0.9867 48.4245 -36.3957)" width="0.1" height="5.2"/>
			<rect x="246.8" y="275.1" transform="matrix(0.9867 0.1626 -0.1626 0.9867 48.4363 -36.4429)" width="0" height="5.2"/>
			<rect x="247.5" y="275.2" transform="matrix(0.9867 0.1626 -0.1626 0.9867 48.4628 -36.5487)" width="0.1" height="5.2"/>
			<rect x="247.8" y="275.2" transform="matrix(0.9867 0.1626 -0.1626 0.9867 48.476 -36.6017)" width="0.1" height="5.2"/>
			<rect x="248.1" y="275.3" transform="matrix(0.9867 0.1626 -0.1626 0.9867 48.4892 -36.6546)" width="0.1" height="5.2"/>
			<rect x="248.5" y="275.3" transform="matrix(0.9867 0.1626 -0.1626 0.9867 48.5025 -36.7075)" width="0.1" height="5.2"/>
			<rect x="250.4" y="275.7" transform="matrix(0.9867 0.1626 -0.1626 0.9867 48.5818 -37.0251)" width="0.1" height="5.2"/>
			<rect x="250.7" y="275.7" transform="matrix(0.9867 0.1626 -0.1626 0.9867 48.5951 -37.078)" width="0.2" height="5.2"/>
			<rect x="251.1" y="275.8" transform="matrix(0.9867 0.1626 -0.1626 0.9867 48.6083 -37.1309)" width="0.1" height="5.2"/>
			<rect x="251.5" y="275.8" transform="matrix(0.9867 0.1626 -0.1626 0.9867 48.6215 -37.1838)" width="0" height="5.2"/>
			<rect x="252.3" y="276" transform="matrix(0.9867 0.1626 -0.1626 0.9867 48.6547 -37.3163)" width="0" height="5.2"/>
			<rect x="256.2" y="276.6" transform="matrix(0.9867 0.1626 -0.1626 0.9867 48.8128 -37.9488)" width="0" height="5.2"/>
			<rect x="251.7" y="275.9" transform="matrix(0.9867 0.1626 -0.1626 0.9867 48.632 -37.2259)" width="0.1" height="5.2"/>
			<rect x="253.6" y="276.2" transform="matrix(0.9867 0.1626 -0.1626 0.9867 48.7772 -37.5163)" width="0.1" height="6.1"/>
			<rect x="254.2" y="276.3" transform="matrix(0.9867 0.1626 -0.1626 0.9867 48.7329 -37.6293)" width="0.1" height="5.2"/>
			<rect x="255.2" y="276.5" transform="matrix(0.9867 0.1626 -0.1626 0.9867 48.773 -37.7896)" width="0.1" height="5.2"/>
			<rect x="255.8" y="276.5" transform="matrix(0.9867 0.1626 -0.1626 0.9867 48.7956 -37.8802)" width="0" height="5.2"/>
			<rect x="252.5" y="276" transform="matrix(0.9867 0.1626 -0.1626 0.9867 48.6654 -37.3592)" width="0.1" height="5.2"/>
			<rect x="253.1" y="276.1" transform="matrix(0.9867 0.1626 -0.1626 0.9867 48.6874 -37.4475)" width="0" height="5.2"/>
			<rect x="253.2" y="276.1" transform="matrix(0.9867 0.1626 -0.1626 0.9867 48.6933 -37.4709)" width="0.1" height="5.2"/>
			<rect x="248.6" y="275.4" transform="matrix(0.9867 0.1626 -0.1626 0.9867 48.5094 -36.7353)" width="0.1" height="5.2"/>
			<rect x="249.2" y="275.5" transform="matrix(0.9867 0.1626 -0.1626 0.9867 48.5317 -36.8244)" width="0.1" height="5.2"/>
			<rect x="248.2" y="275.3" transform="matrix(0.9867 0.1626 -0.1626 0.9867 48.4929 -36.6693)" width="0.1" height="5.2"/>
			<rect x="249.8" y="275.6" transform="matrix(0.9867 0.1626 -0.1626 0.9867 48.5538 -36.913)" width="0.1" height="5.2"/>
			<rect x="247" y="275.1" transform="matrix(0.9867 0.1626 -0.1626 0.9867 48.4442 -36.4744)" width="0.1" height="5.2"/>
			<rect x="256.7" y="276.7" transform="matrix(0.9867 0.1626 -0.1626 0.9867 48.8316 -38.0242)" width="0.1" height="5.2"/>
			<rect x="257" y="276.7" transform="matrix(0.9867 0.1626 -0.1626 0.9867 48.8449 -38.0771)" width="0.2" height="5.2"/>
			<rect x="258.1" y="276.9" transform="matrix(0.9867 0.1626 -0.1626 0.9867 48.8917 -38.2643)" width="0.1" height="5.2"/>
			<rect x="258" y="276.9" transform="matrix(0.9867 0.1626 -0.1626 0.9867 48.8846 -38.2359)" width="0.1" height="5.2"/>
			<rect x="258.6" y="277" transform="matrix(0.9867 0.1626 -0.1626 0.9867 48.911 -38.3418)" width="0.1" height="5.2"/>
			<rect x="259.9" y="277.2" transform="matrix(0.9867 0.1626 -0.1626 0.9867 48.9602 -38.5386)" width="0.1" height="5.2"/>
			<rect x="259.2" y="277.1" transform="matrix(0.9867 0.1626 -0.1626 0.9867 48.9312 -38.4224)" width="0.1" height="5.2"/>
			<rect x="260.1" y="277.3" transform="matrix(0.9867 0.1626 -0.1626 0.9867 49.038 -38.5615)" width="0.1" height="6.1"/>
			<rect x="253.3" y="276.1" transform="matrix(0.9867 0.1626 -0.1626 0.9867 48.6987 -37.4927)" width="0.1" height="5.2"/>
			<rect x="254.7" y="276.4" transform="matrix(0.9867 0.1626 -0.1626 0.9867 48.7539 -37.7131)" width="0.2" height="5.2"/>
			<rect x="255.3" y="276.5" transform="matrix(0.9867 0.1626 -0.1626 0.9867 48.7771 -37.8059)" width="0.1" height="5.2"/>
		</g>
		<g>
			<g>
				<path d="M247.2,280.7c0-0.1,0.1-0.1,0.2-0.1c0.1,0,0.1,0.1,0.1,0.2c0,0.1,0,0.1-0.1,0.1c0.1,0,0.1,0.1,0.1,0.2
					c0,0.1-0.1,0.1-0.2,0.1c-0.1,0-0.2-0.1-0.2-0.2c0-0.1,0.1-0.1,0.1-0.1C247.2,280.8,247.1,280.7,247.2,280.7z M247.3,280.9
					c-0.1,0-0.1,0-0.1,0.1c0,0.1,0,0.1,0.1,0.1c0.1,0,0.1,0,0.1-0.1C247.4,281,247.4,280.9,247.3,280.9z M247.3,280.8
					C247.4,280.8,247.4,280.8,247.3,280.8c0.1-0.1,0.1-0.2,0-0.2c-0.1,0-0.1,0-0.1,0.1C247.2,280.7,247.2,280.8,247.3,280.8z"/>
			</g>
			<g>
				<path d="M248.1,281c0,0.2-0.1,0.3-0.2,0.2c-0.1,0-0.2-0.1-0.1-0.3c0-0.2,0.1-0.3,0.2-0.2C248,280.7,248.1,280.8,248.1,281z
					 M247.8,280.9c0,0.1,0,0.2,0.1,0.2c0.1,0,0.1,0,0.1-0.2c0-0.1,0-0.2-0.1-0.2C247.9,280.7,247.8,280.8,247.8,280.9z"/>
			</g>
			<g>
				<path d="M248.4,281c0,0,0.1,0,0.1,0c0.1,0,0.1,0.1,0.1,0.2c0,0.1-0.1,0.2-0.2,0.2C248.3,281.3,248.3,281.2,248.4,281
					c-0.1-0.1,0.1-0.2,0.2-0.2c0,0,0,0,0,0l0,0.1c0,0,0,0,0,0C248.5,280.9,248.4,280.9,248.4,281z M248.4,281.1L248.4,281.1
					c0,0.1,0,0.2,0.1,0.2c0.1,0,0.1,0,0.1-0.1c0-0.1,0-0.1-0.1-0.1C248.5,281,248.4,281.1,248.4,281.1z"/>
			</g>
			<g>
				<path d="M248.9,281.4L248.9,281.4c0.1,0,0.1,0,0.2,0c0.1,0,0.1,0,0.1-0.1c0-0.1,0-0.1-0.1-0.1l0,0l0-0.1l0,0
					c0.1,0,0.1,0,0.1-0.1c0,0,0-0.1-0.1-0.1c0,0-0.1,0-0.1,0l0-0.1c0,0,0.1,0,0.1,0c0.1,0,0.1,0.1,0.1,0.2c0,0.1,0,0.1-0.1,0.1
					c0.1,0,0.1,0.1,0.1,0.2c0,0.1-0.1,0.1-0.2,0.1C248.9,281.4,248.9,281.4,248.9,281.4z"/>
			</g>
			<g>
				<path d="M249.5,281.5C249.5,281.5,249.5,281.5,249.5,281.5c0-0.2,0.3-0.3,0.3-0.4c0,0,0-0.1-0.1-0.1c0,0-0.1,0-0.1,0l0-0.1
					c0,0,0.1,0,0.2,0c0.1,0,0.1,0.1,0.1,0.2C249.8,281.3,249.6,281.3,249.5,281.5l0.3,0l0,0.1L249.5,281.5z"/>
			</g>
			<g>
				<path d="M250.1,281.5C250.1,281.5,250.2,281.6,250.1,281.5c0.2,0.1,0.2,0,0.2-0.1c0,0-0.1,0-0.1,0c-0.1,0-0.1-0.1-0.1-0.2
					c0-0.1,0.1-0.2,0.2-0.1c0.1,0,0.1,0,0.1,0.1c0,0,0,0.1,0,0.2c0,0.2-0.1,0.3-0.2,0.3C250.1,281.6,250.1,281.6,250.1,281.5
					L250.1,281.5z M250.4,281.3L250.4,281.3c0-0.1,0-0.2-0.1-0.2c-0.1,0-0.1,0-0.1,0.1c0,0.1,0,0.1,0.1,0.1
					C250.3,281.4,250.3,281.3,250.4,281.3z"/>
			</g>
			<g>
				<path d="M251,281.6l0,0.1l-0.1,0L251,281.6l-0.3,0l0-0.1l0.2-0.3l0.1,0l-0.2,0.3L251,281.6l0-0.2l0.1,0L251,281.6L251,281.6
					L251,281.6L251,281.6z"/>
			</g>
			<g>
				<path d="M251.6,281.6c0,0.2-0.1,0.3-0.2,0.2c-0.1,0-0.2-0.1-0.1-0.3c0-0.2,0.1-0.3,0.2-0.2C251.6,281.3,251.7,281.4,251.6,281.6
					z M251.4,281.5c0,0.1,0,0.2,0.1,0.2c0.1,0,0.1,0,0.1-0.2c0-0.1,0-0.2-0.1-0.2C251.4,281.3,251.4,281.4,251.4,281.5z"/>
			</g>
		</g>
		<g>
			<g>
				<path d="M258.4,282.6c0-0.1,0.1-0.1,0.2-0.1c0.1,0,0.1,0.1,0.1,0.2c0,0.1,0,0.1-0.1,0.1c0.1,0,0.1,0.1,0.1,0.2
					c0,0.1-0.1,0.1-0.2,0.1c-0.1,0-0.2-0.1-0.2-0.2c0-0.1,0.1-0.1,0.1-0.1C258.5,282.7,258.4,282.6,258.4,282.6z M258.6,282.7
					c-0.1,0-0.1,0-0.1,0.1c0,0.1,0,0.1,0.1,0.1c0.1,0,0.1,0,0.1-0.1C258.7,282.8,258.6,282.8,258.6,282.7z M258.6,282.7
					C258.6,282.7,258.7,282.6,258.6,282.7c0.1-0.1,0.1-0.2,0-0.2c-0.1,0-0.1,0-0.1,0.1C258.5,282.6,258.5,282.6,258.6,282.7z"/>
			</g>
			<g>
				<path d="M254.9,282.1c0,0,0.1,0,0.1,0c0.1,0,0.1,0.1,0.1,0.2c0,0.1-0.1,0.2-0.2,0.2C254.9,282.4,254.8,282.3,254.9,282.1
					c-0.1-0.1,0.1-0.2,0.2-0.2c0,0,0,0,0,0l0,0.1c0,0,0,0,0,0C255,281.9,255,282,254.9,282.1z M254.9,282.2L254.9,282.2
					c0,0.1,0,0.2,0.1,0.2c0.1,0,0.1,0,0.1-0.1c0-0.1,0-0.1-0.1-0.1C255,282.1,254.9,282.1,254.9,282.2z"/>
			</g>
			<g>
				<path d="M254.2,282.2L254.2,282.2c0.1,0,0.1,0,0.2,0c0.1,0,0.1,0,0.1-0.1c0-0.1,0-0.1-0.1-0.1l0,0l0-0.1l0,0
					c0.1,0,0.1,0,0.1-0.1c0,0,0-0.1-0.1-0.1c0,0-0.1,0-0.1,0l0-0.1c0,0,0.1,0,0.1,0c0.1,0,0.1,0.1,0.1,0.2c0,0.1,0,0.1-0.1,0.1
					c0.1,0,0.1,0.1,0.1,0.2c0,0.1-0.1,0.1-0.2,0.1C254.3,282.3,254.3,282.3,254.2,282.2z"/>
			</g>
			<g>
				<path d="M256,282.6C256,282.6,256,282.6,256,282.6c0-0.2,0.3-0.3,0.3-0.4c0,0,0-0.1-0.1-0.1c0,0-0.1,0-0.1,0l0-0.1
					c0,0,0.1,0,0.2,0c0.1,0,0.1,0.1,0.1,0.2C256.4,282.4,256.1,282.4,256,282.6l0.3,0l0,0.1L256,282.6z"/>
			</g>
			<g>
				<path d="M256.7,282.6C256.7,282.6,256.7,282.6,256.7,282.6c0.2,0.1,0.2,0,0.2-0.1c0,0-0.1,0-0.1,0c-0.1,0-0.1-0.1-0.1-0.2
					c0-0.1,0.1-0.2,0.2-0.1c0.1,0,0.1,0,0.1,0.1c0,0,0,0.1,0,0.2c0,0.2-0.1,0.3-0.2,0.3C256.7,282.7,256.6,282.7,256.7,282.6
					L256.7,282.6z M256.9,282.4L256.9,282.4c0-0.1,0-0.2-0.1-0.2c-0.1,0-0.1,0-0.1,0.1c0,0.1,0,0.1,0.1,0.1
					C256.8,282.4,256.9,282.4,256.9,282.4z"/>
			</g>
			<g>
				<path d="M255.5,282.4C255.5,282.4,255.6,282.4,255.5,282.4c0.2,0.1,0.2,0,0.2-0.1c0,0-0.1,0-0.1,0c-0.1,0-0.1-0.1-0.1-0.2
					c0-0.1,0.1-0.2,0.2-0.1c0.1,0,0.1,0,0.1,0.1c0,0,0,0.1,0,0.2c0,0.2-0.1,0.3-0.2,0.3C255.5,282.5,255.5,282.5,255.5,282.4
					L255.5,282.4z M255.8,282.2L255.8,282.2c0-0.1,0-0.2-0.1-0.2c-0.1,0-0.1,0-0.1,0.1c0,0.1,0,0.1,0.1,0.1
					C255.7,282.2,255.7,282.2,255.8,282.2z"/>
			</g>
			<g>
				<path d="M257.5,282.7l0,0.1l-0.1,0L257.5,282.7l-0.3,0l0-0.1l0.2-0.3l0.1,0l-0.2,0.3L257.5,282.7l0-0.2l0.1,0L257.5,282.7
					L257.5,282.7L257.5,282.7L257.5,282.7z"/>
			</g>
			<g>
				<path d="M258.2,282.7c0,0.2-0.1,0.3-0.2,0.2c-0.1,0-0.2-0.1-0.1-0.3c0-0.2,0.1-0.3,0.2-0.2C258.2,282.4,258.2,282.5,258.2,282.7
					z M257.9,282.6c0,0.1,0,0.2,0.1,0.2c0.1,0,0.1,0,0.1-0.2c0-0.1,0-0.2-0.1-0.2C258,282.4,257.9,282.5,257.9,282.6z"/>
			</g>
		</g>
	</g>
</g>
<g>
	<g>
		<g class="st16">
			<image style="overflow:visible;" width="18" height="8" xlink:href="F6B344B6.png"  transform="matrix(1 0 0 1 294 263)">
			</image>
		</g>
		<path class="st7" d="M310.1,262.6l-15.7,0.8c-0.4,0-0.7,0.3-0.7,0.5l0.3,6.3c0,0.3,0.4,0.5,0.8,0.5l15.7-0.8
			c0.4,0,0.7-0.3,0.7-0.5l-0.3-6.3C310.8,262.8,310.5,262.6,310.1,262.6z"/>
	</g>
	<g>
		<g>
			
				<rect x="295.1" y="264.3" transform="matrix(0.9987 -5.001956e-02 5.001956e-02 0.9987 -13.0009 15.0972)" width="0.1" height="6.1"/>
			
				<rect x="295.2" y="264.3" transform="matrix(0.9987 -5.001956e-02 5.001956e-02 0.9987 -13.0004 15.1036)" width="0.1" height="6.1"/>
			
				<rect x="295.8" y="264.2" transform="matrix(0.9987 -5.001956e-02 5.001956e-02 0.9987 -12.9768 15.1308)" width="0.1" height="5.2"/>
			
				<rect x="296.1" y="264.2" transform="matrix(0.9987 -5.001956e-02 5.001956e-02 0.9987 -12.9757 15.1457)" width="0" height="5.2"/>
			
				<rect x="296.8" y="264.2" transform="matrix(0.9987 -5.001956e-02 5.001956e-02 0.9987 -12.9732 15.179)" width="0.1" height="5.2"/>
			
				<rect x="297.1" y="264.2" transform="matrix(0.9987 -5.001956e-02 5.001956e-02 0.9987 -12.972 15.1957)" width="0.1" height="5.2"/>
			
				<rect x="297.4" y="264.1" transform="matrix(0.9987 -5.001956e-02 5.001956e-02 0.9987 -12.9707 15.2124)" width="0.1" height="5.2"/>
			
				<rect x="297.7" y="264.1" transform="matrix(0.9987 -5.001956e-02 5.001956e-02 0.9987 -12.9694 15.2291)" width="0.1" height="5.2"/>
			
				<rect x="299.7" y="264" transform="matrix(0.9987 -5.001956e-02 5.001956e-02 0.9987 -12.9619 15.3292)" width="0.1" height="5.2"/>
			
				<rect x="300" y="264" transform="matrix(0.9987 -5.001956e-02 5.001956e-02 0.9987 -12.9607 15.3459)" width="0.2" height="5.2"/>
			
				<rect x="300.4" y="264" transform="matrix(0.9987 -5.001956e-02 5.001956e-02 0.9987 -12.9594 15.3625)" width="0.1" height="5.2"/>
			
				<rect x="300.8" y="264" transform="matrix(0.9987 -5.001956e-02 5.001956e-02 0.9987 -12.9582 15.3792)" width="0" height="5.2"/>
			
				<rect x="301.6" y="263.9" transform="matrix(0.9987 -5.001956e-02 5.001956e-02 0.9987 -12.955 15.421)" width="0" height="5.2"/>
			
				<rect x="305.6" y="263.7" transform="matrix(0.9987 -5.001956e-02 5.001956e-02 0.9987 -12.94 15.6204)" width="0" height="5.2"/>
			
				<rect x="301" y="264" transform="matrix(0.9987 -5.001956e-02 5.001956e-02 0.9987 -12.9572 15.3925)" width="0.1" height="5.2"/>
			
				<rect x="303" y="263.9" transform="matrix(0.9987 -5.001956e-02 5.001956e-02 0.9987 -12.9714 15.491)" width="0.1" height="6.1"/>
			
				<rect x="303.6" y="263.8" transform="matrix(0.9987 -5.001956e-02 5.001956e-02 0.9987 -12.9476 15.5197)" width="0.1" height="5.2"/>
			
				<rect x="304.6" y="263.8" transform="matrix(0.9987 -5.001956e-02 5.001956e-02 0.9987 -12.9438 15.5702)" width="0.1" height="5.2"/>
			
				<rect x="305.2" y="263.8" transform="matrix(0.9987 -5.001956e-02 5.001956e-02 0.9987 -12.9416 15.5988)" width="0" height="5.2"/>
			
				<rect x="301.9" y="263.9" transform="matrix(0.9987 -5.001956e-02 5.001956e-02 0.9987 -12.954 15.4345)" width="0.1" height="5.2"/>
			
				<rect x="302.4" y="263.9" transform="matrix(0.9987 -5.001956e-02 5.001956e-02 0.9987 -12.9519 15.4623)" width="0" height="5.2"/>
			
				<rect x="302.6" y="263.9" transform="matrix(0.9987 -5.001956e-02 5.001956e-02 0.9987 -12.9513 15.4697)" width="0.1" height="5.2"/>
			
				<rect x="297.9" y="264.1" transform="matrix(0.9987 -5.001956e-02 5.001956e-02 0.9987 -12.9688 15.2378)" width="0.1" height="5.2"/>
			
				<rect x="298.5" y="264.1" transform="matrix(0.9987 -5.001956e-02 5.001956e-02 0.9987 -12.9667 15.2659)" width="0.1" height="5.2"/>
			
				<rect x="297.5" y="264.1" transform="matrix(0.9987 -5.001956e-02 5.001956e-02 0.9987 -12.9704 15.217)" width="0.1" height="5.2"/>
			
				<rect x="299.1" y="264.1" transform="matrix(0.9987 -5.001956e-02 5.001956e-02 0.9987 -12.9646 15.2939)" width="0.1" height="5.2"/>
			
				<rect x="296.3" y="264.2" transform="matrix(0.9987 -5.001956e-02 5.001956e-02 0.9987 -12.975 15.1556)" width="0.1" height="5.2"/>
			
				<rect x="306.1" y="263.7" transform="matrix(0.9987 -5.001956e-02 5.001956e-02 0.9987 -12.9382 15.6442)" width="0.1" height="5.2"/>
			
				<rect x="306.3" y="263.7" transform="matrix(0.9987 -5.001956e-02 5.001956e-02 0.9987 -12.937 15.6608)" width="0.2" height="5.2"/>
			
				<rect x="307.5" y="263.6" transform="matrix(0.9987 -5.001956e-02 5.001956e-02 0.9987 -12.9325 15.7198)" width="0.1" height="5.2"/>
			
				<rect x="307.4" y="263.6" transform="matrix(0.9987 -5.001956e-02 5.001956e-02 0.9987 -12.9332 15.7109)" width="0.1" height="5.2"/>
			
				<rect x="308.1" y="263.6" transform="matrix(0.9987 -5.001956e-02 5.001956e-02 0.9987 -12.9307 15.7443)" width="0.1" height="5.2"/>
			
				<rect x="309.3" y="263.5" transform="matrix(0.9987 -5.001956e-02 5.001956e-02 0.9987 -12.926 15.8063)" width="0.1" height="5.2"/>
			
				<rect x="308.6" y="263.6" transform="matrix(0.9987 -5.001956e-02 5.001956e-02 0.9987 -12.9288 15.7697)" width="0.1" height="5.2"/>
			
				<rect x="309.6" y="263.5" transform="matrix(0.9987 -5.001956e-02 5.001956e-02 0.9987 -12.9465 15.8205)" width="0.1" height="6.1"/>
			
				<rect x="302.7" y="263.9" transform="matrix(0.9987 -5.001956e-02 5.001956e-02 0.9987 -12.9508 15.4766)" width="0.1" height="5.2"/>
			
				<rect x="304.1" y="263.8" transform="matrix(0.9987 -5.001956e-02 5.001956e-02 0.9987 -12.9456 15.5461)" width="0.2" height="5.2"/>
			
				<rect x="304.7" y="263.8" transform="matrix(0.9987 -5.001956e-02 5.001956e-02 0.9987 -12.9434 15.5753)" width="0.1" height="5.2"/>
		</g>
		<g>
			<g>
				<path d="M297,269.7c0-0.1,0.1-0.1,0.1-0.1c0.1,0,0.2,0,0.2,0.1c0,0.1,0,0.1-0.1,0.1c0.1,0,0.1,0.1,0.1,0.1
					c0,0.1-0.1,0.2-0.2,0.2c-0.1,0-0.2-0.1-0.2-0.1c0-0.1,0-0.1,0.1-0.2C297.1,269.8,297.1,269.8,297,269.7z M297.2,269.8
					c-0.1,0-0.1,0.1-0.1,0.1c0,0.1,0.1,0.1,0.1,0.1c0.1,0,0.1,0,0.1-0.1C297.3,269.9,297.3,269.9,297.2,269.8z M297.2,269.8
					C297.3,269.8,297.3,269.7,297.2,269.8c0.1-0.1,0-0.2,0-0.2c-0.1,0-0.1,0-0.1,0.1C297.1,269.7,297.2,269.8,297.2,269.8z"/>
			</g>
			<g>
				<path d="M298,269.8c0,0.2-0.1,0.3-0.2,0.3c-0.1,0-0.2-0.1-0.2-0.3c0-0.2,0.1-0.3,0.2-0.3C297.9,269.5,298,269.6,298,269.8z
					 M297.7,269.8c0,0.1,0.1,0.2,0.1,0.2c0.1,0,0.1-0.1,0.1-0.2c0-0.1-0.1-0.2-0.1-0.2C297.7,269.6,297.7,269.7,297.7,269.8z"/>
			</g>
			<g>
				<path d="M298.3,269.8c0,0,0.1-0.1,0.1-0.1c0.1,0,0.2,0.1,0.2,0.2c0,0.1-0.1,0.2-0.2,0.2C298.3,270.1,298.3,270,298.3,269.8
					c-0.1-0.1,0-0.3,0.2-0.3c0,0,0,0,0,0l0,0.1c0,0,0,0,0,0C298.4,269.6,298.3,269.6,298.3,269.8z M298.3,269.8L298.3,269.8
					c0,0.1,0.1,0.2,0.1,0.2c0.1,0,0.1-0.1,0.1-0.1c0-0.1,0-0.1-0.1-0.1C298.4,269.8,298.3,269.8,298.3,269.8z"/>
			</g>
			<g>
				<path d="M298.9,270L298.9,270c0.1,0,0.1,0,0.1,0c0.1,0,0.1,0,0.1-0.1c0-0.1,0-0.1-0.1-0.1l0,0l0-0.1l0,0c0.1,0,0.1-0.1,0.1-0.1
					c0,0,0-0.1-0.1-0.1c0,0-0.1,0-0.1,0l0-0.1c0,0,0.1,0,0.1-0.1c0.1,0,0.2,0.1,0.2,0.1c0,0.1,0,0.1-0.1,0.1c0.1,0,0.1,0.1,0.1,0.1
					c0,0.1-0.1,0.2-0.2,0.2C298.9,270,298.9,270,298.9,270z"/>
			</g>
			<g>
				<path d="M299.5,270C299.5,270,299.5,270,299.5,270c0-0.2,0.2-0.3,0.2-0.4c0,0,0-0.1-0.1-0.1c0,0-0.1,0-0.1,0.1l0,0
					c0,0,0.1-0.1,0.2-0.1c0.1,0,0.2,0,0.2,0.1C299.8,269.7,299.6,269.8,299.5,270l0.3-0.1l0,0.1L299.5,270z"/>
			</g>
			<g>
				<path d="M300.1,269.9c0,0,0.1,0,0.1,0c0.1,0,0.1-0.1,0.1-0.2c0,0-0.1,0.1-0.1,0.1c-0.1,0-0.2,0-0.2-0.2c0-0.1,0.1-0.2,0.2-0.2
					c0.1,0,0.1,0,0.1,0c0,0,0.1,0.1,0.1,0.2c0,0.2-0.1,0.3-0.2,0.3C300.2,270,300.1,269.9,300.1,269.9L300.1,269.9z M300.3,269.6
					L300.3,269.6c0-0.1,0-0.2-0.1-0.2c-0.1,0-0.1,0-0.1,0.1c0,0.1,0.1,0.1,0.1,0.1C300.3,269.7,300.3,269.7,300.3,269.6z"/>
			</g>
			<g>
				<path d="M301,269.8l0,0.1l-0.1,0L301,269.8l-0.3,0l0-0.1l0.1-0.4l0.1,0l-0.1,0.3L301,269.8l-0.1-0.2l0.1,0L301,269.8L301,269.8
					L301,269.8L301,269.8z"/>
			</g>
			<g>
				<path d="M301.6,269.6c0,0.2-0.1,0.3-0.2,0.3c-0.1,0-0.2-0.1-0.2-0.3c0-0.2,0.1-0.3,0.2-0.3C301.5,269.3,301.6,269.4,301.6,269.6
					z M301.3,269.6c0,0.1,0.1,0.2,0.1,0.2c0.1,0,0.1-0.1,0.1-0.2c0-0.1-0.1-0.2-0.1-0.2C301.4,269.4,301.3,269.5,301.3,269.6z"/>
			</g>
		</g>
		<g>
			<g>
				<path d="M308.5,269.1c0-0.1,0.1-0.1,0.1-0.1c0.1,0,0.2,0,0.2,0.1c0,0.1,0,0.1-0.1,0.1c0.1,0,0.1,0.1,0.1,0.1
					c0,0.1-0.1,0.2-0.2,0.2c-0.1,0-0.2-0.1-0.2-0.1c0-0.1,0-0.1,0.1-0.2C308.5,269.2,308.5,269.2,308.5,269.1z M308.6,269.3
					c-0.1,0-0.1,0.1-0.1,0.1c0,0.1,0.1,0.1,0.1,0.1c0.1,0,0.1,0,0.1-0.1C308.8,269.3,308.7,269.3,308.6,269.3z M308.6,269.2
					C308.7,269.2,308.7,269.2,308.6,269.2c0.1-0.1,0-0.2,0-0.2c-0.1,0-0.1,0-0.1,0.1C308.5,269.2,308.6,269.2,308.6,269.2z"/>
			</g>
			<g>
				<path d="M304.9,269.4c0,0,0.1-0.1,0.1-0.1c0.1,0,0.2,0.1,0.2,0.2c0,0.1-0.1,0.2-0.2,0.2C305,269.7,304.9,269.7,304.9,269.4
					c-0.1-0.1,0-0.3,0.2-0.3c0,0,0,0,0,0l0,0.1c0,0,0,0,0,0C305,269.2,304.9,269.3,304.9,269.4z M304.9,269.5L304.9,269.5
					c0,0.1,0.1,0.2,0.1,0.2c0.1,0,0.1-0.1,0.1-0.1c0-0.1,0-0.1-0.1-0.1C305,269.4,305,269.5,304.9,269.5z"/>
			</g>
			<g>
				<path d="M304.3,269.7L304.3,269.7c0.1,0,0.1,0,0.1,0c0.1,0,0.1,0,0.1-0.1c0-0.1,0-0.1-0.1-0.1l0,0l0-0.1l0,0
					c0.1,0,0.1-0.1,0.1-0.1c0,0,0-0.1-0.1-0.1c0,0-0.1,0-0.1,0l0-0.1c0,0,0.1,0,0.1-0.1c0.1,0,0.2,0.1,0.2,0.1c0,0.1,0,0.1-0.1,0.1
					c0.1,0,0.1,0.1,0.1,0.1c0,0.1-0.1,0.2-0.2,0.2C304.4,269.8,304.3,269.7,304.3,269.7z"/>
			</g>
			<g>
				<path d="M306.1,269.7C306.1,269.6,306.1,269.6,306.1,269.7c0-0.2,0.2-0.3,0.2-0.4c0,0,0-0.1-0.1-0.1c0,0-0.1,0-0.1,0.1l0,0
					c0,0,0.1-0.1,0.2-0.1c0.1,0,0.2,0,0.2,0.1C306.4,269.4,306.2,269.5,306.1,269.7l0.3-0.1l0,0.1L306.1,269.7z"/>
			</g>
			<g>
				<path d="M306.7,269.5c0,0,0.1,0,0.1,0c0.1,0,0.1-0.1,0.1-0.2c0,0-0.1,0.1-0.1,0.1c-0.1,0-0.2,0-0.2-0.2c0-0.1,0.1-0.2,0.2-0.2
					c0.1,0,0.1,0,0.1,0c0,0,0.1,0.1,0.1,0.2c0,0.2-0.1,0.3-0.2,0.3C306.8,269.6,306.7,269.6,306.7,269.5L306.7,269.5z M306.9,269.3
					L306.9,269.3c0-0.1,0-0.2-0.1-0.2c-0.1,0-0.1,0-0.1,0.1c0,0.1,0.1,0.1,0.1,0.1C306.9,269.4,306.9,269.3,306.9,269.3z"/>
			</g>
			<g>
				<path d="M305.6,269.6c0,0,0.1,0,0.1,0c0.1,0,0.1-0.1,0.1-0.2c0,0-0.1,0.1-0.1,0.1c-0.1,0-0.2,0-0.2-0.2c0-0.1,0.1-0.2,0.2-0.2
					c0.1,0,0.1,0,0.1,0c0,0,0.1,0.1,0.1,0.2c0,0.2-0.1,0.3-0.2,0.3C305.6,269.7,305.6,269.7,305.6,269.6L305.6,269.6z M305.8,269.4
					L305.8,269.4c0-0.1,0-0.2-0.1-0.2c-0.1,0-0.1,0-0.1,0.1c0,0.1,0.1,0.1,0.1,0.1C305.7,269.4,305.7,269.4,305.8,269.4z"/>
			</g>
			<g>
				<path d="M307.6,269.5l0,0.1l-0.1,0L307.6,269.5l-0.3,0l0-0.1l0.1-0.4l0.1,0l-0.1,0.3L307.6,269.5l-0.1-0.2l0.1,0L307.6,269.5
					L307.6,269.5L307.6,269.5L307.6,269.5z"/>
			</g>
			<g>
				<path d="M308.2,269.3c0,0.2-0.1,0.3-0.2,0.3c-0.1,0-0.2-0.1-0.2-0.3c0-0.2,0.1-0.3,0.2-0.3C308.2,269,308.2,269.1,308.2,269.3z
					 M307.9,269.3c0,0.1,0.1,0.2,0.1,0.2c0.1,0,0.1-0.1,0.1-0.2c0-0.1-0.1-0.2-0.1-0.2C308,269.1,307.9,269.1,307.9,269.3z"/>
			</g>
		</g>
	</g>
</g>
<g>
	<g>
		<path d="M385,277.6h-14.2l-2,14.2H383L385,277.6z M381.3,289.8H371l1.4-10.3h10.3L381.3,289.8z"/>
		<polygon points="380.4,281.6 374.2,281.6 373.4,287.8 379.5,287.8 		"/>
		<path d="M399.4,277.6l-2,14.2h14.2l2-14.2H399.4z M409.9,289.8h-10.3l1.4-10.3h10.3L409.9,289.8z"/>
		<polygon points="409,281.6 402.9,281.6 402,287.8 408.2,287.8 		"/>
		<path d="M364.8,320.3H379l2-14.2h-14.2L364.8,320.3z M368.5,308h10.3l-1.4,10.3H367L368.5,308z"/>
		<polygon points="369.4,316.2 375.5,316.2 376.4,310.1 370.2,310.1 		"/>
		<polygon points="372.5,293.8 368.5,293.8 368.2,295.9 372.2,295.9 		"/>
		<polygon points="380.4,296 382.4,296 382.2,297.9 378.1,297.9 378.1,298.2 377.8,299.9 377.5,302 377.2,304 377.2,304 379.3,304 
			379.3,304 383.4,304 383.7,302 379.5,302 379.8,299.9 384,299.9 383.7,302 385.7,302 386,299.9 386.2,298.2 386.3,297.9 
			384.2,297.9 384.7,293.9 382.7,293.9 382.7,293.9 380.7,293.9 		"/>
		<polygon points="392,299.9 391.7,302 389.7,302 389.4,304 387.4,304 387.1,306.1 385.1,306.1 384.8,308.1 382.8,308.1 383.4,304 
			385.4,304 385.7,302 387.7,302 388,299.9 		"/>
		<polygon points="394.7,310.1 395,308.1 395,308 395.3,306.1 393.2,306.1 393,308 386.8,308 386.6,310.1 388.5,310.1 388.2,312.2 
			386.3,312.2 386.6,310.1 384.5,310.1 384.2,312.2 382.2,312.2 381.9,314.2 384,314.2 383.7,316.2 381.6,316.2 381,320.3 
			383.1,320.3 385,320.3 385.1,320.3 385.7,316.2 387.7,316.2 388,314.2 390,314.2 390.6,310.1 		"/>
		<polygon points="391.7,316.2 391.4,318.3 397.5,318.3 397.3,320.3 403.4,320.3 403.7,318.3 399.5,318.3 399.8,316.2 400.1,314.2 
			398.1,314.2 397.8,316.2 		"/>
		<polygon points="387.1,320.3 391.1,320.3 391.4,318.3 387.4,318.3 		"/>
		<polygon points="392,299.9 396.1,299.9 396.4,297.9 392.2,297.9 		"/>
		<polygon points="408.2,300 407.9,302 409.9,302 409.6,304 407.6,304 407.9,302 405.9,302 405.6,304 403.6,304 403.9,302 
			401.9,302 402.4,297.9 406.4,297.9 406.7,295.9 404.6,295.9 404.9,293.9 409,293.9 408.7,295.9 408.7,295.9 408.4,297.9 
			410.5,297.9 410.2,300 		"/>
		<polygon points="389.4,304 389.1,306.1 391.1,306.1 391.4,304 393.4,304 393.7,302 391.7,302 391.4,304 		"/>
		<polygon points="390,314.2 389.7,316.2 391.7,316.2 392,314.2 		"/>
		<polygon points="401.9,316.2 403.9,316.2 404.2,314.2 402.1,314.2 		"/>
		<polygon points="395.8,302 395.5,304 397.6,304 397.8,302 		"/>
		<polygon points="396.4,297.9 398.4,297.9 398.7,295.9 402.8,295.9 403.1,293.9 397,293.9 396.7,295.9 396.7,295.9 		"/>
		<polygon points="369.9,297.9 367.9,297.9 367,304 369.1,304 		"/>
		<polygon points="386.7,293.9 386.8,293.9 386.3,297.9 388.3,297.9 388.6,295.8 390.6,295.8 390.8,293.9 393.8,293.9 393.8,293.9 
			395,293.9 396.1,285.7 394.1,285.7 393.8,287.8 391.7,287.8 391.4,289.8 393.5,289.8 393.2,291.9 391.1,291.9 391.4,289.8 
			389.4,289.8 389.1,291.9 387,291.9 387.9,285.7 389.9,285.7 391.1,277.6 389.1,277.6 388.8,279.6 386.8,279.6 386.2,283.7 
			388.2,283.7 387.9,285.7 385.9,285.7 384.7,293.9 386.7,293.9 		"/>
		<path d="M407,308.1l-0.3,2.1h-2l0.3-2.1h-2l0.6-4.1h-2l0.3-2h-2l-0.3,2.1h-2l-0.8,6h-2l-0.3,2h1.8l-0.3,2.1h2.2l0.3-2.1h2l0.3-2
			l0,0h2l0,0l0,0l-0.3,2h2l-0.3,2.1h2l-0.6,4.1h2l1.4-10.2H407z M401,308h-2l0.3-2h2L401,308z"/>
		<polygon points="405,308.1 407,308.1 407.6,304 405.6,304 		"/>
		<polygon points="402.4,312.1 402.1,314.2 400.1,314.2 400.4,312.1 		"/>
		<polygon points="397,279.6 397.2,277.6 395.2,277.6 393.7,277.6 393.1,277.6 392.6,281.7 394.7,281.7 395,279.6 		"/>
		<polygon points="392.3,283.7 392,285.7 394.1,285.7 394.4,283.7 		"/>
		<polygon points="396.8,281.7 394.7,281.7 394.4,283.7 396.5,283.7 		"/>
		<polygon points="375.1,304 375.4,302 373.4,302 373.1,304 		"/>
		<polygon points="375.7,300 376.5,293.9 374.5,293.9 374.2,295.9 372.2,295.9 371.4,302 373.4,302 373.6,300 		"/>
	</g>
	<path d="M366.6,283.5c-0.4,0-0.7-0.4-0.7-0.8l1.2-8.5c0.1-0.4,0.5-0.8,0.9-0.8h8.5c0.4,0,0.7,0.4,0.7,0.8c-0.1,0.4-0.5,0.8-0.9,0.8
		h-7.7l-1.1,7.7C367.4,283.1,367,283.5,366.6,283.5z"/>
	<path d="M416.2,283.5c-0.4,0-0.7-0.4-0.7-0.8l1.1-7.7h-7.7c-0.4,0-0.7-0.4-0.7-0.8c0.1-0.4,0.5-0.8,0.9-0.8h8.5
		c0.4,0,0.7,0.4,0.7,0.8l-1.2,8.5C417,283.1,416.6,283.5,416.2,283.5z"/>
	<path d="M369.3,324.5h-8.5c-0.4,0-0.7-0.4-0.7-0.8l1.2-8.5c0.1-0.4,0.5-0.8,0.9-0.8s0.7,0.4,0.7,0.8l-1.1,7.7h7.7
		c0.4,0,0.7,0.4,0.7,0.8C370.1,324.1,369.7,324.5,369.3,324.5z"/>
	<path d="M410.4,324.5H402c-0.4,0-0.7-0.4-0.7-0.8c0.1-0.4,0.5-0.8,0.9-0.8h7.7l1.1-7.7c0.1-0.4,0.5-0.8,0.9-0.8
		c0.4,0,0.7,0.4,0.7,0.8l-1.2,8.5C411.3,324.1,410.9,324.5,410.4,324.5z"/>
</g>
</svg>
